<svg width="756" height="345" viewBox="0 0 756 345" fill="none" xmlns="http://www.w3.org/2000/svg">
<g id="1442">
<path id="Union" fill-rule="evenodd" clip-rule="evenodd" d="M364.392 0L314 14.9324V83.277H344.784L318.634 170L384 58.0068H348.472L364.392 0ZM742.367 147.55L699.77 158.964L668.944 43.9219L574.477 69.2344L507.497 214.52L519.299 258.567L654.336 222.384L665.051 262.373L723.296 246.766L712.581 206.777L755.178 195.363L742.367 147.55ZM641.524 174.57L569.37 193.904L618.386 88.2167L641.524 174.57ZM354 343.063C367.849 343.608 382.598 341.783 398.248 337.59C432.249 328.479 456.881 311.837 472.144 287.663C487.601 263.437 490.981 235.096 482.285 202.641C473.588 170.186 456.491 147.333 430.992 134.081C410.386 123.247 386.896 119.845 360.524 123.875L384.953 174.771C389.504 175.935 393.854 177.741 398.002 180.19C410.494 187.403 419.173 200.089 424.039 218.248C428.905 236.407 427.758 251.83 420.597 264.515C413.428 276.933 401.805 285.327 385.729 289.697L354 343.063ZM206.093 256.839L248.691 268.253L235.879 316.066L193.282 304.652L182.567 344.641L124.321 329.035L135.036 289.045L0 252.862L11.8021 208.816L142.451 116.484L236.919 141.797L206.093 256.839ZM75.6933 221.898L147.848 241.232L170.986 154.878L75.6933 221.898ZM372.347 179.018C353.748 178.827 336.713 182.751 321.243 190.791C295.938 204.095 278.937 226.974 270.241 259.429C262.148 289.63 264.429 316.245 277.083 339.275L329.533 316.437C324.575 304.734 324.226 290.934 328.486 275.036C333.352 256.877 342.031 244.191 354.523 236.978C363.504 231.677 373.428 229.387 384.297 230.109L372.347 179.018ZM528.367 293L515 311.969L524.19 333L548 322.691L528.367 293ZM297.179 161.725L275.939 159.933L290.719 130.755L309.796 144.778L297.179 161.725Z" fill="white"/>
</g>
</svg>
