<svg width="124" height="38" viewBox="0 0 124 38" fill="none" xmlns="http://www.w3.org/2000/svg">
<path id="Vector" d="M25.5657 20.196C25.5657 15.3831 29.5173 13.0802 29.6213 12.9755C27.4392 9.73277 23.9025 9.22077 22.7583 9.22077C19.8468 8.90674 17.0395 10.9991 15.5832 10.9991C14.0229 10.9991 11.852 9.32657 9.34425 9.32657C6.22365 9.32657 3.20934 11.2096 1.64905 14.0348C-1.78247 19.8945 0.712865 28.4849 3.93635 33.1841C5.49664 35.4858 7.36787 38.1016 9.86321 37.997C12.2545 37.8923 13.1907 36.4268 16.1021 36.4268C19.0136 36.4268 19.8333 37.997 22.3411 37.8923C24.9415 37.8923 26.5018 35.5905 28.0599 33.2876C29.9311 30.6706 30.6604 28.056 30.6604 27.8466C30.5564 27.8466 25.6697 25.9635 25.5657 20.2074V20.196ZM20.887 6.06903C22.1353 4.39646 23.0692 2.1971 22.8623 0C20.9911 0.104678 18.7015 1.25611 17.3515 2.92982C16.2073 4.29064 15.0642 6.59358 15.3763 8.78954C17.3515 8.89422 19.5371 7.63806 20.887 6.05879V6.06903ZM48.0565 31.1235H45.5691L44.1637 26.7248H39.415L38.0876 31.1235H35.668L40.4167 16.2786H43.3824L48.0565 31.1235ZM43.6855 24.9976L42.4372 21.1484C42.2812 20.7558 42.0471 19.8126 41.6458 18.3209H41.5666L40.8656 21.1484L39.6174 24.9976H43.6855ZM60.2325 25.703C60.2325 27.5098 59.7644 29.0026 58.7491 30.0232C57.8898 30.9653 56.7976 31.4375 55.4702 31.4375C54.0648 31.4375 53.0506 30.9665 52.4265 29.9447V35.5996H50.0861V23.9747L50.0069 20.4406H52.1145L52.2705 22.1701H52.3496C53.1411 20.914 54.3011 20.2848 55.9394 20.2848C57.1877 20.2848 58.2799 20.7558 59.06 21.7776C59.8515 22.7197 60.2302 24.0554 60.2302 25.7052L60.2325 25.703ZM57.8129 25.7826C57.8129 24.762 57.5789 23.8973 57.1119 23.1907C56.5658 22.4853 55.9417 22.1701 55.0824 22.1701C54.5363 22.1701 53.9902 22.4056 53.5221 22.7197C53.0323 23.1125 52.6999 23.6701 52.5859 24.2898C52.5068 24.5254 52.4299 24.7609 52.4299 24.9953V26.8021C52.409 27.5223 52.6595 28.2237 53.1309 28.7659C53.5979 29.3155 54.2231 29.5624 55.0044 29.5624C55.8637 29.5624 56.5647 29.2484 57.1119 28.5418C57.58 27.8364 57.8129 26.892 57.8129 25.7929V25.7826ZM72.4865 25.703C72.4865 27.5098 72.0184 29.0026 71.0031 30.0232C70.1438 30.9653 69.0516 31.4375 67.7242 31.4375C66.3188 31.4375 65.3046 30.9665 64.6805 29.9447H64.6013V35.5996H62.2609V23.9747L62.1817 20.4406H64.2893L64.4453 22.1701H64.5245C65.3159 20.914 66.476 20.2848 68.1143 20.2848C69.3625 20.2848 70.4547 20.7558 71.2349 21.7776C72.0942 22.7197 72.4831 24.0554 72.4831 25.7052L72.4865 25.703ZM70.0669 25.7826C70.0669 24.762 69.8329 23.8973 69.3659 23.1907C68.8198 22.4853 68.1957 22.1701 67.3364 22.1701C66.7903 22.1701 66.2442 22.4056 65.7761 22.7197C65.2863 23.1125 64.9539 23.6701 64.8399 24.2898C64.7608 24.6039 64.7608 24.8394 64.7608 24.9953V26.8021C64.7399 27.5223 64.9903 28.2237 65.4618 28.7659C65.9287 29.3155 66.554 29.5624 67.3352 29.5624C68.1945 29.5624 68.8955 29.2484 69.4428 28.5418C69.8328 27.8364 70.0669 26.892 70.0669 25.7929V25.7826ZM86.1447 26.9591C86.1447 28.2153 85.6766 29.237 84.8174 30.0221C83.8812 30.8868 82.5538 31.3579 80.747 31.3579C79.1867 31.3579 77.8593 31.0438 76.922 30.4158L77.4681 28.4519C78.4823 29.08 79.6537 29.394 80.9019 29.394C81.7612 29.394 82.4622 29.1585 83.0094 28.7659C83.4775 28.3734 83.8009 27.8239 83.8009 27.1161C83.8052 26.8374 83.752 26.5608 83.6445 26.3038C83.5371 26.0469 83.3778 25.8151 83.1768 25.6233C82.7867 25.2297 82.0846 24.8269 81.1473 24.4457C78.5716 23.5036 77.2443 22.0905 77.2443 20.204C77.2316 19.6386 77.3442 19.0774 77.5738 18.5612C77.8034 18.045 78.1442 17.5867 78.5716 17.2195C79.5078 16.4231 80.6792 16.0419 82.1615 16.0419C83.4888 16.0419 84.6489 16.2774 85.5172 16.7473L84.8931 18.7112C84.0312 18.2398 83.0643 17.997 82.0834 18.0057C81.2241 18.0057 80.6 18.2413 80.1319 18.6338C79.7419 19.0263 79.5078 19.4303 79.5078 19.9696C79.5081 20.2551 79.5712 20.5371 79.6926 20.7952C79.814 21.0533 79.9907 21.2812 80.21 21.4624C80.6 21.7764 81.3022 22.1678 82.3955 22.64C83.6437 23.1896 84.581 23.7391 85.2052 24.4469C85.9062 25.0749 86.1413 25.9397 86.1413 26.95L86.1447 26.9591ZM94.0276 22.2486H91.452V27.4324C91.452 28.7682 91.9201 29.3963 92.8574 29.3963C93.2475 29.3963 93.6488 29.3963 93.8716 29.3167L93.9507 31.1235C93.4827 31.2805 92.8585 31.359 92.0773 31.359C91.1411 31.359 90.4378 31.045 89.8917 30.4943C89.3456 29.9436 89.1002 28.9241 89.1002 27.5883V22.1803H87.54V20.3735H89.1002V18.4882L91.4407 17.7827V20.4531H94.0163L94.0276 22.2486ZM105.735 25.703C105.735 27.3528 105.267 28.6875 104.33 29.7991C103.316 30.8982 102.067 31.4489 100.427 31.4489C98.8668 31.4489 97.6174 30.8993 96.6813 29.8787C95.7451 28.8581 95.2759 27.5235 95.2759 25.951C95.2759 24.3012 95.7439 22.9666 96.6813 21.855C97.6174 20.8343 98.9448 20.2848 100.584 20.2848C102.145 20.2848 103.394 20.8343 104.33 21.855C105.344 22.7971 105.735 24.1328 105.735 25.7041V25.703ZM103.316 25.7826C103.333 24.904 103.117 24.0366 102.692 23.2692C102.224 22.4045 101.522 22.0131 100.584 22.0131C99.647 22.0131 98.9448 22.4056 98.3987 23.2692C98.0086 23.9747 97.7746 24.8394 97.7746 25.8612C97.7577 26.7398 97.9731 27.6072 98.3987 28.3745C98.9448 29.2393 99.647 29.6307 100.584 29.6307C101.522 29.6307 102.224 29.1596 102.692 28.2949C103.082 27.6668 103.316 26.8021 103.316 25.7917V25.7826ZM113.462 22.5626C113.228 22.483 112.994 22.483 112.671 22.483C111.812 22.483 111.187 22.797 110.719 23.4251C110.329 23.9747 110.095 24.6812 110.095 25.546V31.2009H107.755V23.8961L107.676 20.5192H109.705L109.784 22.5615H109.863C110.085 21.8863 110.49 21.2874 111.034 20.8332C111.58 20.4406 112.126 20.2836 112.752 20.2836C112.986 20.2836 113.142 20.2836 113.376 20.3633L113.462 22.5626ZM124 25.3104C124 25.703 124 26.1069 123.921 26.4096H116.818C116.818 27.4302 117.208 28.2949 117.832 28.8445C118.505 29.3588 119.329 29.6348 120.174 29.6295C121.188 29.6295 122.203 29.4725 123.062 29.1585L123.452 30.8083C122.437 31.2794 121.266 31.4364 119.862 31.4364C118.222 31.4364 116.896 30.9653 115.959 29.9436C115.023 29.0015 114.553 27.6657 114.553 26.0159C114.553 24.3661 115.022 23.0314 115.881 22.0108C116.817 20.8332 118.066 20.2813 119.627 20.2813C121.187 20.2813 122.358 20.8309 123.138 22.0108C123.685 22.8073 123.998 23.9747 123.998 25.3104H124ZM121.814 24.6824C121.814 23.9769 121.658 23.3466 121.346 22.8755C120.956 22.2475 120.332 21.855 119.473 21.855C118.681 21.855 118.067 22.169 117.599 22.797C117.209 23.3466 116.975 23.8962 116.898 24.6824H121.814Z" fill="black"/>
</svg>
