<svg width="157" height="47" viewBox="0 0 157 47" fill="none" xmlns="http://www.w3.org/2000/svg">
<path id="Vector" d="M32.3694 24.9793C32.3694 19.0265 37.3727 16.1781 37.5044 16.0487C34.7415 12.0379 30.2636 11.4046 28.8149 11.4046C25.1287 11.0162 21.5741 13.6042 19.7303 13.6042C17.7548 13.6042 15.0062 11.5355 11.831 11.5355C7.87995 11.5355 4.06344 13.8646 2.08791 17.3588C-2.25684 24.6064 0.902578 35.2314 4.98392 41.0435C6.95946 43.8904 9.32868 47.1257 12.4881 46.9962C15.5158 46.8668 16.7012 45.0542 20.3874 45.0542C24.0736 45.0542 25.1115 46.9963 28.2867 46.8668C31.5792 46.8668 33.5548 44.0198 35.5274 41.1715C37.8966 37.9347 38.82 34.7008 38.82 34.4419C38.6883 34.4419 32.5011 32.1128 32.3694 24.9933V24.9793ZM26.4457 7.50643C28.0261 5.43772 29.2086 2.71747 28.9466 0C26.5774 0.12947 23.6785 1.55362 21.9692 3.62373C20.5205 5.30684 19.0732 8.15522 19.4683 10.8713C21.9693 11.0007 24.7364 9.44707 26.4457 7.49376V7.50643ZM60.8458 38.4949H57.6964L55.917 33.0543H49.9045L48.2238 38.4949H45.1603L51.1728 20.134H54.9278L60.8458 38.4949ZM55.3114 30.918L53.731 26.1572C53.5334 25.6717 53.2371 24.505 52.7289 22.6601H52.6287L51.7411 26.1572L50.1607 30.918H55.3114ZM76.2621 31.7905C76.2621 34.0253 75.6695 35.8717 74.3839 37.134C73.296 38.2992 71.9131 38.8833 70.2325 38.8833C68.453 38.8833 67.1689 38.3006 66.3787 37.0369V44.0311H63.4154V29.6529L63.3152 25.2819H65.9836L66.1812 27.4209H66.2814C67.2835 25.8673 68.7522 25.0891 70.8265 25.0891C72.407 25.0891 73.7898 25.6717 74.7776 26.9354C75.7797 28.1006 76.2593 29.7528 76.2593 31.7933L76.2621 31.7905ZM73.1986 31.8891C73.1986 30.6267 72.9023 29.5572 72.3111 28.6832C71.6196 27.8107 70.8294 27.4209 69.7414 27.4209C69.05 27.4209 68.3585 27.7122 67.7659 28.1006C67.1458 28.5865 66.7249 29.2761 66.5806 30.0427C66.4804 30.334 66.383 30.6253 66.383 30.9152V33.15C66.3566 34.0407 66.6737 34.9083 67.2706 35.5789C67.8618 36.2587 68.6535 36.564 69.6427 36.564C70.7306 36.564 71.6182 36.1756 72.3111 35.3017C72.9037 34.4292 73.1986 33.2612 73.1986 31.9017V31.8891ZM91.7772 31.7905C91.7772 34.0253 91.1846 35.8717 89.899 37.134C88.8111 38.2992 87.4282 38.8833 85.7476 38.8833C83.9682 38.8833 82.6841 38.3006 81.8938 37.0369H81.7936V44.0311H78.8303V29.6529L78.7301 25.2819H81.3985L81.5961 27.4209H81.6963C82.6984 25.8673 84.1671 25.0891 86.2415 25.0891C87.8219 25.0891 89.2048 25.6717 90.1925 26.9354C91.2805 28.1006 91.773 29.7528 91.773 31.7933L91.7772 31.7905ZM88.7137 31.8891C88.7137 30.6267 88.4174 29.5572 87.8262 28.6832C87.1347 27.8107 86.3445 27.4209 85.2565 27.4209C84.5651 27.4209 83.8737 27.7122 83.281 28.1006C82.6609 28.5865 82.24 29.2761 82.0957 30.0427C81.9955 30.4311 81.9955 30.7224 81.9955 30.9152V33.15C81.9691 34.0407 82.2861 34.9083 82.883 35.5789C83.4743 36.2587 84.2659 36.564 85.2551 36.564C86.3431 36.564 87.2306 36.1756 87.9235 35.3017C88.4174 34.4292 88.7137 33.2612 88.7137 31.9017V31.8891ZM109.07 33.3442C109.07 34.8978 108.478 36.1616 107.39 37.1326C106.204 38.2021 104.524 38.7847 102.236 38.7847C100.261 38.7847 98.58 38.3963 97.3932 37.6195L98.0846 35.1905C99.3687 35.9673 100.852 36.3558 102.432 36.3558C103.52 36.3558 104.408 36.0644 105.101 35.5789C105.693 35.0934 106.103 34.4137 106.103 33.5384C106.108 33.1936 106.041 32.8515 105.905 32.5337C105.769 32.2159 105.567 31.9293 105.313 31.692C104.819 31.2051 103.93 30.7069 102.743 30.2355C99.4818 29.0702 97.8012 27.3224 97.8012 24.9891C97.7852 24.2898 97.9277 23.5958 98.2184 22.9573C98.5091 22.3189 98.9407 21.752 99.4818 21.2978C100.667 20.3127 102.15 19.8413 104.027 19.8413C105.708 19.8413 107.176 20.1326 108.276 20.7138L107.486 23.1428C106.394 22.5598 105.17 22.2595 103.928 22.2702C102.84 22.2702 102.05 22.5616 101.457 23.0471C100.963 23.5326 100.667 24.0322 100.667 24.6992C100.668 25.0524 100.747 25.4012 100.901 25.7204C101.055 26.0396 101.279 26.3214 101.556 26.5456C102.05 26.934 102.939 27.4181 104.323 28.0021C105.904 28.6818 107.091 29.3616 107.881 30.2369C108.768 31.0137 109.066 32.0833 109.066 33.3329L109.07 33.3442ZM119.051 27.518H115.79V33.9296C115.79 35.5818 116.383 36.3586 117.569 36.3586C118.063 36.3586 118.572 36.3586 118.854 36.2601L118.954 38.4949C118.361 38.6891 117.571 38.7862 116.582 38.7862C115.396 38.7862 114.506 38.3977 113.815 37.7166C113.123 37.0355 112.812 35.7746 112.812 34.1224V27.4336H110.837V25.1988H112.812V22.867L115.776 21.9944V25.2973H119.037L119.051 27.518ZM133.875 31.7905C133.875 33.8311 133.282 35.4819 132.095 36.8568C130.811 38.2162 129.229 38.8973 127.154 38.8973C125.178 38.8973 123.596 38.2176 122.411 36.9553C121.226 35.6929 120.632 34.0422 120.632 32.0973C120.632 30.0568 121.224 28.406 122.411 27.0311C123.596 25.7688 125.277 25.0891 127.353 25.0891C129.328 25.0891 130.91 25.7688 132.095 27.0311C133.379 28.1964 133.875 29.8485 133.875 31.792V31.7905ZM130.811 31.8891C130.833 30.8023 130.56 29.7295 130.021 28.7804C129.428 27.7108 128.539 27.2267 127.353 27.2267C126.166 27.2267 125.277 27.7122 124.585 28.7804C124.092 29.6529 123.795 30.7224 123.795 31.9862C123.774 33.0729 124.047 34.1457 124.585 35.0948C125.277 36.1644 126.166 36.6485 127.353 36.6485C128.539 36.6485 129.428 36.0659 130.021 34.9963C130.515 34.2195 130.811 33.15 130.811 31.9003V31.8891ZM143.658 27.9064C143.362 27.8079 143.065 27.8079 142.656 27.8079C141.568 27.8079 140.778 28.1963 140.185 28.9731C139.691 29.6529 139.395 30.5268 139.395 31.5963V38.5905H136.432V29.5558L136.331 25.379H138.901L139.001 27.905H139.101C139.381 27.0699 139.895 26.3292 140.583 25.7674C141.274 25.2819 141.966 25.0876 142.759 25.0876C143.055 25.0876 143.253 25.0877 143.549 25.1862L143.658 27.9064ZM157 31.305C157 31.7905 157 32.2901 156.9 32.6645H147.907C147.907 33.9268 148.401 34.9963 149.191 35.676C150.043 36.3122 151.086 36.6536 152.156 36.6471C153.44 36.6471 154.725 36.4529 155.812 36.0644L156.306 38.105C155.022 38.6876 153.539 38.8819 151.761 38.8819C149.685 38.8819 148.006 38.2992 146.819 37.0355C145.634 35.8702 145.039 34.2181 145.039 32.1775C145.039 30.137 145.632 28.4862 146.72 27.2239C147.905 25.7674 149.487 25.0848 151.463 25.0848C153.438 25.0848 154.921 25.7646 155.909 27.2239C156.601 28.209 156.997 29.6529 156.997 31.305H157ZM154.233 30.5282C154.233 29.6557 154.035 28.876 153.64 28.2934C153.146 27.5166 152.356 27.0311 151.268 27.0311C150.266 27.0311 149.489 27.4195 148.896 28.1963C148.402 28.876 148.106 29.5558 148.008 30.5282H154.233Z" fill="white"/>
</svg>
