<svg width="96" height="96" viewBox="0 0 96 96" fill="none" xmlns="http://www.w3.org/2000/svg">
<g id="&#208;&#148;&#208;&#181;&#208;&#189;&#209;&#140;">
<g id="Ellipse 17">
<mask id="path-1-inside-1_813_3942" fill="white">
<path d="M84 48C84 43.2724 83.0688 38.5911 81.2597 34.2234C79.4505 29.8557 76.7988 25.8871 73.4558 22.5442C70.1129 19.2012 66.1443 16.5495 61.7766 14.7403C57.4089 12.9312 52.7276 12 48 12C43.2724 12 38.5911 12.9312 34.2234 14.7403C29.8557 16.5495 25.8871 19.2012 22.5442 22.5442C19.2012 25.8871 16.5495 29.8557 14.7403 34.2234C12.9312 38.5911 12 43.2724 12 48L48 48H84Z"/>
</mask>
<path d="M84 48C84 43.2724 83.0688 38.5911 81.2597 34.2234C79.4505 29.8557 76.7988 25.8871 73.4558 22.5442C70.1129 19.2012 66.1443 16.5495 61.7766 14.7403C57.4089 12.9312 52.7276 12 48 12C43.2724 12 38.5911 12.9312 34.2234 14.7403C29.8557 16.5495 25.8871 19.2012 22.5442 22.5442C19.2012 25.8871 16.5495 29.8557 14.7403 34.2234C12.9312 38.5911 12 43.2724 12 48L48 48H84Z" stroke="white" stroke-width="6" mask="url(#path-1-inside-1_813_3942)"/>
</g>
<circle id="Ellipse 26" cx="20" cy="61" r="6.5" stroke="white" stroke-width="3"/>
<circle id="Ellipse 27" cx="76" cy="61" r="6.5" stroke="white" stroke-width="3"/>
<line id="Line 55" x1="62.5" y1="17" x2="62.5" y2="45" stroke="white" stroke-width="3"/>
<line id="Line 56" x1="61" y1="32.5" x2="18" y2="32.5" stroke="white" stroke-width="3"/>
</g>
</svg>
