<svg width="80" height="80" viewBox="0 0 80 80" fill="none" xmlns="http://www.w3.org/2000/svg">
<g id="1404">
<g id="Union">
<mask id="path-1-inside-1_1837_2701" fill="white">
<path fill-rule="evenodd" clip-rule="evenodd" d="M55.8333 5H25.1667V24.1667L6 24.1667V54.8334H25.1667V74H55.8333V54.8334H75V24.1667L55.8333 24.1667V5Z"/>
</mask>
<path d="M25.1667 5V2H22.1667V5H25.1667ZM55.8333 5H58.8333V2H55.8333V5ZM25.1667 24.1667L25.1667 27.1667L28.1667 27.1667V24.1667H25.1667ZM6 24.1667L6 21.1667L3 21.1667V24.1667H6ZM6 54.8334H3V57.8334H6V54.8334ZM25.1667 54.8334H28.1667V51.8334H25.1667V54.8334ZM25.1667 74H22.1667V77H25.1667V74ZM55.8333 74V77H58.8333V74H55.8333ZM55.8333 54.8334V51.8334H52.8333V54.8334H55.8333ZM75 54.8334V57.8334H78V54.8334H75ZM75 24.1667H78V21.1667L75 21.1667L75 24.1667ZM55.8333 24.1667H52.8333V27.1667L55.8333 27.1667L55.8333 24.1667ZM25.1667 8H55.8333V2H25.1667V8ZM28.1667 24.1667V5H22.1667V24.1667H28.1667ZM6 27.1667L25.1667 27.1667L25.1667 21.1667L6 21.1667L6 27.1667ZM9 54.8334V24.1667H3V54.8334H9ZM25.1667 51.8334H6V57.8334H25.1667V51.8334ZM28.1667 74V54.8334H22.1667V74H28.1667ZM55.8333 71H25.1667V77H55.8333V71ZM52.8333 54.8334V74H58.8333V54.8334H52.8333ZM75 51.8334H55.8333V57.8334H75V51.8334ZM72 24.1667V54.8334H78V24.1667H72ZM55.8333 27.1667L75 27.1667L75 21.1667L55.8333 21.1667L55.8333 27.1667ZM52.8333 5V24.1667H58.8333V5H52.8333Z" fill="white" mask="url(#path-1-inside-1_1837_2701)"/>
</g>
</g>
</svg>
