<svg width="220" height="53" viewBox="0 0 220 53" fill="none" xmlns="http://www.w3.org/2000/svg">
<g id="&#208;&#147;&#209;&#131;&#208;&#179;&#208;&#187;&#209;&#129;&#209;&#130;&#208;&#190;&#209;&#128;">
<path id="Vector" d="M116.735 12.9302C115.013 12.9302 113.561 12.3195 112.413 11.1173C111.274 9.94884 110.638 8.33795 110.667 6.6934C110.667 4.93826 111.255 3.45239 112.413 2.27428C113.556 1.07212 115.008 0.461426 116.73 0.461426C118.433 0.461426 119.885 1.07212 121.052 2.27428C122.21 3.49086 122.798 4.97672 122.798 6.6934C122.779 8.45336 122.191 9.93922 121.052 11.1125C119.909 12.3243 118.457 12.9302 116.735 12.9302ZM65.4904 12.9302C63.8061 12.9302 62.3449 12.3291 61.1493 11.1414C59.9632 9.95846 59.3606 8.46298 59.3606 6.69821C59.3606 4.93345 59.9632 3.43797 61.1493 2.25504C62.3211 1.06731 63.7824 0.466235 65.4904 0.466235C66.3254 0.466235 67.1367 0.634537 67.9148 0.975949C68.6787 1.30774 69.3002 1.75975 69.7604 2.31275L69.8743 2.4522L68.5885 3.73129L68.4557 3.57261C67.7298 2.69744 66.7572 2.26947 65.4714 2.26947C64.3233 2.26947 63.3222 2.68301 62.4967 3.50048C61.6664 4.32275 61.2441 5.39988 61.2441 6.70302C61.2441 8.00616 61.6664 9.08329 62.4967 9.90557C63.3222 10.723 64.3233 11.1366 65.4714 11.1366C66.6955 11.1366 67.725 10.723 68.5268 9.90557C69.0013 9.4247 69.2954 8.7515 69.3998 7.90037H65.2769V6.10194H71.1695L71.1932 6.26544C71.2359 6.56838 71.2786 6.88094 71.2786 7.16946C71.2786 8.82843 70.7852 10.17 69.8078 11.1606C68.6976 12.3339 67.2458 12.9302 65.4904 12.9302ZM133.625 12.6753H131.808L126.243 3.64954L126.29 5.27486V12.6705H124.473V0.721093H126.546L126.603 0.812456L131.836 9.3141L131.789 7.6936V0.721093H133.625V12.6753ZM103.08 12.6753H101.24V2.51952H98.0466V0.721093H106.269V2.51952H103.076V12.6753H103.08ZM96.5474 12.6753H94.7113V0.721093H96.5474V12.6753ZM86.2283 12.6753H84.3922V2.51952H81.1992V0.721093H89.4213V2.51952H86.2283V12.6753ZM80.0368 12.6561H72.9961V0.721093H80.0368V2.51952H74.8369V5.799H79.5292V7.57819H74.8369V10.8577H80.0368V12.6561ZM113.76 9.88152C114.581 10.7134 115.577 11.1318 116.735 11.1318C117.926 11.1318 118.898 10.723 119.71 9.88152C120.516 9.06406 120.924 7.99173 120.924 6.69821C120.924 5.40469 120.516 4.32756 119.714 3.5149C118.894 2.68301 117.893 2.26466 116.74 2.26466C115.549 2.26466 114.576 2.67339 113.77 3.5149C112.963 4.33237 112.555 5.40469 112.555 6.69821C112.555 7.99173 112.958 9.06886 113.76 9.88152Z" fill="white"/>
<path id="Vector_2" fill-rule="evenodd" clip-rule="evenodd" d="M110.545 29.2467C106.089 29.2467 102.477 32.6908 102.477 37.4414C102.477 42.1488 106.112 45.6362 110.545 45.6362C115.002 45.6362 118.614 42.1681 118.614 37.4414C118.614 32.6908 115.002 29.2467 110.545 29.2467ZM110.545 42.389C108.107 42.389 106.009 40.3331 106.009 37.4222C106.009 34.4681 108.112 32.4554 110.545 32.4554C112.983 32.4554 115.082 34.4681 115.082 37.4222C115.087 40.3523 112.983 42.389 110.545 42.389ZM92.9414 29.2467C88.485 29.2467 84.8728 32.6908 84.8728 37.4414C84.8728 42.1488 88.5086 45.6362 92.9414 45.6362C97.3978 45.6362 101.01 42.1681 101.01 37.4414C101.01 32.6908 97.3931 29.2467 92.9414 29.2467ZM92.9414 42.389C90.5034 42.389 88.4049 40.3331 88.4049 37.4222C88.4049 34.4681 90.5081 32.4554 92.9414 32.4554C95.3794 32.4554 97.4779 34.4681 97.4779 37.4222C97.4779 40.3523 95.3794 42.389 92.9414 42.389ZM71.9941 31.7493V35.2174H80.1665C79.9165 37.1628 79.2846 38.5991 78.3179 39.5838C77.1201 40.8039 75.2715 42.1296 72.0129 42.1296C66.9907 42.1296 63.0625 37.9986 63.0625 32.8829C63.0625 27.7672 66.9907 23.6362 72.0129 23.6362C74.7245 23.6362 76.7004 24.7266 78.167 26.1196L80.5814 23.6603C78.5442 21.6716 75.8327 20.1489 72.0318 20.1489C65.1421 20.1489 59.3606 25.8651 59.3606 32.8637C59.3606 39.8816 65.1374 45.5785 72.0318 45.5785C75.7525 45.5785 78.5442 44.3392 80.7512 42.0047C83.0006 39.7135 83.7127 36.4807 83.7127 33.8725C83.7127 33.0607 83.6514 32.3305 83.5241 31.7109H71.9894C71.9941 31.7061 71.9941 31.7493 71.9941 31.7493ZM157.674 34.4489C157 32.6091 154.963 29.2275 150.785 29.2275C146.644 29.2275 143.202 32.5467 143.202 37.4222C143.202 42.0239 146.607 45.6169 151.185 45.6169C154.864 45.6169 157.005 43.3257 157.887 41.9807L155.156 40.117C154.251 41.486 152.992 42.3842 151.204 42.3842C149.398 42.3842 148.134 41.5484 147.295 39.9008L158.052 35.3615C158.052 35.3663 157.674 34.4489 157.674 34.4489ZM146.706 37.1868C146.621 34.0214 149.12 32.4122 150.907 32.4122C152.317 32.4122 153.491 33.1183 153.892 34.1463L146.706 37.1868ZM137.967 45.127H141.499V21.052H137.967V45.127ZM132.167 31.0672H132.04C131.243 30.1017 129.729 29.2275 127.795 29.2275C123.782 29.2275 120.085 32.8253 120.085 37.4462C120.085 42.048 123.763 45.6025 127.795 45.6025C129.705 45.6025 131.243 44.7235 132.04 43.7388H132.167V44.9156C132.167 48.0427 130.526 49.7287 127.88 49.7287C125.716 49.7287 124.372 48.1436 123.825 46.8178L120.755 48.1244C121.637 50.2859 123.99 52.9615 127.876 52.9615C132.016 52.9615 135.525 50.4781 135.525 44.4209V29.7174H132.186V31.0672C132.19 31.0672 132.167 31.0672 132.167 31.0672ZM128.111 42.389C125.673 42.389 123.636 40.3139 123.636 37.4462C123.636 34.5545 125.673 32.4602 128.111 32.4602C130.526 32.4602 132.398 34.5786 132.398 37.4462C132.422 40.3139 130.531 42.389 128.111 42.389ZM174.212 21.052H165.767V45.127H169.299V36.01H174.217C178.127 36.01 181.97 33.1231 181.97 28.5406C181.97 23.9581 178.141 21.052 174.212 21.052ZM174.316 32.6476H169.294V24.3856H174.316C176.962 24.3856 178.457 26.6096 178.457 28.5166C178.457 30.4043 176.943 32.6476 174.316 32.6476ZM196.126 29.2035C193.561 29.2035 190.916 30.3611 189.822 32.8829L192.953 34.2087C193.627 32.8829 194.863 32.4314 196.169 32.4314C197.999 32.4314 199.847 33.5458 199.89 35.5345V35.789C199.258 35.424 197.871 34.8668 196.211 34.8668C192.83 34.8668 189.402 36.7497 189.402 40.2803C189.402 43.513 192.175 45.5881 195.264 45.5881C197.636 45.5881 198.942 44.4977 199.758 43.2344H199.885V45.0982H203.29V35.8755C203.29 31.5812 200.158 29.2035 196.126 29.2035ZM195.683 42.389C194.528 42.389 192.91 41.8126 192.91 40.3331C192.91 38.4694 194.929 37.7633 196.65 37.7633C198.206 37.7633 198.942 38.1043 199.866 38.5751C199.611 40.7366 197.819 42.3698 195.683 42.389ZM215.711 29.7174L211.655 40.1602H211.528L207.326 29.7174H203.525L209.83 44.3152L206.237 52.4283H209.915L219.616 29.7174H215.711ZM183.917 45.127H187.45V21.052H183.917V45.127Z" fill="white"/>
<path id="Vector_3" d="M1.73074 4.6012C1.73074 4.08985 1.79915 3.67502 1.90899 3.34334L24.3353 25.7296L1.91021 48.1281C1.80028 47.8051 1.73074 47.3932 1.73074 46.8768V4.6012Z" fill="white" stroke="black" stroke-width="2"/>
<path id="Vector_4" d="M41.9205 23.8203L41.9239 23.8223C43.0341 24.4673 43.3774 25.1894 43.3774 25.7199C43.3774 26.252 43.0322 26.9795 41.9199 27.6341C41.9197 27.6343 41.9194 27.6345 41.9191 27.6346L33.3368 32.6658L26.6094 25.7271L33.3368 18.7883L41.9205 23.8203Z" fill="white" stroke="black" stroke-width="2"/>
<path id="Vector_5" d="M3.65563 49.3275L25.3921 26.8378L31.7016 33.3659L5.42289 48.833C4.69145 49.2537 4.10613 49.3757 3.65563 49.3275Z" fill="white" stroke="black" stroke-width="2"/>
<path id="Vector_6" d="M5.43927 3.2625L31.6477 17.863L25.3918 23.9986L3.73205 2.77674C4.1795 2.74902 4.7472 2.87464 5.43704 3.26125L5.43704 3.26126L5.43927 3.2625Z" fill="white" stroke="black" stroke-width="2"/>
</g>
</svg>
