<svg width="154" height="38" viewBox="0 0 154 38" fill="none" xmlns="http://www.w3.org/2000/svg">
<rect width="154" height="38" fill="#2E2D2D"/>
<g id="&#208;&#148;&#208;&#181;&#209;&#130;&#209;&#129;&#208;&#186;&#208;&#184;&#208;&#185; &#208;&#187;&#208;&#176;&#208;&#179;&#208;&#181;&#209;&#128;&#209;&#140; FFC mini CAMP">
<rect width="1920" height="9745" transform="translate(-1549 -6848)" fill="black"/>
<g id="&#208;&#166;&#208;&#181;&#208;&#189;&#209;&#139;">
<g id="&#208;&#166;&#208;&#181;&#208;&#189;&#209;&#139;_2">
<rect id="Rectangle 109" x="-733" y="-590" width="1068" height="684" fill="white"/>
<g id="&#208;&#179;&#209;&#131;&#208;&#179;&#208;&#187; &#209;&#129;&#209;&#130;&#208;&#190;&#209;&#128;">
<g id="&#208;&#147;&#209;&#131;&#208;&#179;&#208;&#187;">
<path id="Vector" d="M81.6166 9.37508C80.4049 9.37508 79.3835 8.94856 78.5757 8.10896C77.7746 7.29287 77.3273 6.16781 77.3473 5.01924C77.3473 3.79342 77.7612 2.75567 78.5757 1.93287C79.3802 1.09327 80.4016 0.666748 81.6133 0.666748C82.8117 0.666748 83.8331 1.09327 84.6542 1.93287C85.4687 2.78254 85.8826 3.82029 85.8826 5.01924C85.8693 6.24841 85.4554 7.28616 84.6542 8.10561C83.8498 8.95192 82.8283 9.37508 81.6166 9.37508ZM45.5627 9.37508C44.3777 9.37508 43.3496 8.95528 42.5084 8.12576C41.6739 7.29959 41.25 6.25513 41.25 5.02259C41.25 3.79006 41.6739 2.7456 42.5084 1.91943C43.3329 1.08991 44.361 0.670107 45.5627 0.670107C46.1502 0.670107 46.721 0.787651 47.2684 1.0261C47.8059 1.25783 48.2431 1.57352 48.5669 1.95973L48.647 2.05713L47.7424 2.95046L47.649 2.83963C47.1383 2.2284 46.454 1.92951 45.5494 1.92951C44.7416 1.92951 44.0372 2.21833 43.4564 2.78926C42.8723 3.36354 42.5752 4.11583 42.5752 5.02595C42.5752 5.93608 42.8723 6.68836 43.4564 7.26265C44.0372 7.83358 44.7416 8.1224 45.5494 8.1224C46.4106 8.1224 47.1349 7.83358 47.699 7.26265C48.0329 6.92681 48.2398 6.45663 48.3132 5.86219H45.4125V4.60615H49.5583L49.575 4.72034C49.6051 4.93192 49.6351 5.15021 49.6351 5.35172C49.6351 6.51037 49.2879 7.44736 48.6003 8.13919C47.8192 8.95864 46.7978 9.37508 45.5627 9.37508ZM93.5 9.19709H92.2215L88.306 2.89337L88.3394 4.02851V9.19373H87.061V0.848102H88.5197L88.5597 0.911912L92.2416 6.84956L92.2082 5.71778V0.848102H93.5V9.19709V9.19709ZM72.0098 9.19709H70.7147V2.10414H68.4682V0.848102H74.253V2.10414H72.0065V9.19709H72.0098ZM67.4134 9.19709H66.1216V0.848102H67.4134V9.19709ZM60.1532 9.19709H58.8614V2.10414H56.6149V0.848102H62.3997V2.10414H60.1532V9.19709ZM55.7971 9.18365H50.8435V0.848102H55.7971V2.10414H52.1386V4.39457H55.4399V5.63718H52.1386V7.92761H55.7971V9.18365ZM79.5237 7.24586C80.1012 7.82686 80.8022 8.11904 81.6166 8.11904C82.4545 8.11904 83.1388 7.83358 83.7096 7.24586C84.277 6.67493 84.5641 5.926 84.5641 5.02259C84.5641 4.11918 84.277 3.3669 83.7129 2.79933C83.1354 2.21833 82.4311 1.92615 81.62 1.92615C80.7821 1.92615 80.0979 2.21161 79.5304 2.79933C78.9629 3.37026 78.6759 4.11918 78.6759 5.02259C78.6759 5.926 78.9596 6.67829 79.5237 7.24586Z" fill="black"/>
<path id="Vector_2" fill-rule="evenodd" clip-rule="evenodd" d="M77.2618 20.7707C74.1264 20.7707 71.585 23.1761 71.585 26.494C71.585 29.7817 74.143 32.2173 77.2618 32.2173C80.3971 32.2173 82.9386 29.7952 82.9386 26.494C82.9386 23.1761 80.3971 20.7707 77.2618 20.7707ZM77.2618 29.9495C75.5465 29.9495 74.07 28.5136 74.07 26.4806C74.07 24.4174 75.5498 23.0118 77.2618 23.0118C78.9771 23.0118 80.4535 24.4174 80.4535 26.4806C80.4569 28.5271 78.9771 29.9495 77.2618 29.9495ZM64.8763 20.7707C61.741 20.7707 59.1995 23.1761 59.1995 26.494C59.1995 29.7817 61.7575 32.2173 64.8763 32.2173C68.0117 32.2173 70.5531 29.7952 70.5531 26.494C70.5531 23.1761 68.0083 20.7707 64.8763 20.7707ZM64.8763 29.9495C63.161 29.9495 61.6845 28.5136 61.6845 26.4806C61.6845 24.4174 63.1643 23.0118 64.8763 23.0118C66.5916 23.0118 68.0681 24.4174 68.0681 26.4806C68.0681 28.5271 66.5916 29.9495 64.8763 29.9495ZM50.1385 22.5186V24.9408H55.8883C55.7124 26.2995 55.2679 27.3025 54.5877 27.9903C53.745 28.8424 52.4444 29.7683 50.1518 29.7683C46.6183 29.7683 43.8545 26.8832 43.8545 23.3103C43.8545 19.7375 46.6183 16.8523 50.1518 16.8523C52.0595 16.8523 53.4497 17.6139 54.4815 18.5868L56.1803 16.8691C54.747 15.4802 52.8392 14.4167 50.165 14.4167C45.3177 14.4167 41.25 18.409 41.25 23.2969C41.25 28.1983 45.3144 32.1771 50.165 32.1771C52.7828 32.1771 54.747 31.3115 56.2997 29.6811C57.8823 28.0809 58.3833 25.8231 58.3833 24.0014C58.3833 23.4345 58.3402 22.9245 58.2506 22.4918H50.1352C50.1385 22.4884 50.1385 22.5186 50.1385 22.5186ZM110.42 24.404C109.946 23.1191 108.512 20.7573 105.573 20.7573C102.66 20.7573 100.238 23.0755 100.238 26.4806C100.238 29.6945 102.633 32.2039 105.855 32.2039C108.443 32.2039 109.949 30.6037 110.57 29.6643L108.649 28.3627C108.011 29.3188 107.126 29.9461 105.868 29.9461C104.597 29.9461 103.708 29.3624 103.118 28.2117L110.686 25.0414C110.686 25.0448 110.42 24.404 110.42 24.404ZM102.703 26.3162C102.643 24.1054 104.402 22.9816 105.659 22.9816C106.651 22.9816 107.477 23.4747 107.759 24.1926L102.703 26.3162ZM96.555 31.8617H99.04V15.0475H96.555V31.8617ZM92.4741 22.0422H92.3845C91.8238 21.3679 90.7587 20.7573 89.3984 20.7573C86.5749 20.7573 83.9738 23.2701 83.9738 26.4974C83.9738 29.7113 86.5617 32.1939 89.3984 32.1939C90.7421 32.1939 91.8238 31.5799 92.3845 30.8922H92.4741V31.7141C92.4741 33.8981 91.3194 35.0756 89.4581 35.0756C87.9353 35.0756 86.9897 33.9685 86.6048 33.0426L84.4449 33.9551C85.0653 35.4648 86.7209 37.3334 89.4548 37.3334C92.3679 37.3334 94.8364 35.599 94.8364 31.3686V21.0995H92.4873V22.0422C92.4906 22.0422 92.4741 22.0422 92.4741 22.0422ZM89.6207 29.9495C87.9054 29.9495 86.4721 28.5002 86.4721 26.4974C86.4721 24.4778 87.9054 23.0151 89.6207 23.0151C91.3194 23.0151 92.6366 24.4946 92.6366 26.4974C92.6532 28.5002 91.3228 29.9495 89.6207 29.9495ZM122.056 15.0475H116.114V31.8617H118.599V25.4943H122.059C124.81 25.4943 127.514 23.4781 127.514 20.2776C127.514 17.0771 124.82 15.0475 122.056 15.0475ZM122.129 23.1459H118.595V17.3757H122.129C123.99 17.3757 125.042 18.929 125.042 20.2608C125.042 21.5793 123.977 23.1459 122.129 23.1459ZM137.474 20.7406C135.669 20.7406 133.808 21.5491 133.038 23.3103L135.241 24.2363C135.715 23.3103 136.585 22.995 137.504 22.995C138.791 22.995 140.092 23.7733 140.121 25.1622V25.34C139.677 25.085 138.701 24.6959 137.534 24.6959C135.155 24.6959 132.743 26.0109 132.743 28.4767C132.743 30.7345 134.694 32.1838 136.867 32.1838C138.536 32.1838 139.455 31.4222 140.029 30.5399H140.118V31.8416H142.514V25.4004C142.514 22.4012 140.311 20.7406 137.474 20.7406ZM137.162 29.9495C136.349 29.9495 135.211 29.5469 135.211 28.5136C135.211 27.212 136.631 26.7188 137.842 26.7188C138.937 26.7188 139.455 26.957 140.105 27.2858C139.926 28.7954 138.665 29.9361 137.162 29.9495ZM151.253 21.0995L148.399 28.3929H148.31L145.354 21.0995H142.68L147.115 31.2948L144.587 36.961H147.175L154 21.0995H151.253ZM128.884 31.8617H131.369V15.0475H128.884V31.8617Z" fill="black"/>
<g id="Vector_3">
<mask id="path-5-inside-1_689_567" fill="white">
<path fill-rule="evenodd" clip-rule="evenodd" d="M0.614587 1.67328C0.225012 2.08951 0 2.72551 0 3.55798V33.0838C0 33.9162 0.225012 34.5522 0.62802 34.9518L0.732131 35.0417L17.4167 18.499V18.1294L0.718698 1.58337L0.614587 1.67328Z"/>
</mask>
<path fill-rule="evenodd" clip-rule="evenodd" d="M0.614587 1.67328C0.225012 2.08951 0 2.72551 0 3.55798V33.0838C0 33.9162 0.225012 34.5522 0.62802 34.9518L0.732131 35.0417L17.4167 18.499V18.1294L0.718698 1.58337L0.614587 1.67328Z" fill="black" stroke="white" stroke-width="2" mask="url(#path-5-inside-1_689_567)"/>
</g>
<g id="Vector_4">
<mask id="path-6-inside-2_689_567" fill="white">
<path fill-rule="evenodd" clip-rule="evenodd" d="M22.8224 24.0417L17.416 18.5063V18.1188L22.8224 12.5834L22.9399 12.6569L29.3349 16.3783C31.1653 17.434 31.1653 19.1778 29.3349 20.2468L22.9399 23.9682L22.8224 24.0417Z"/>
</mask>
<path fill-rule="evenodd" clip-rule="evenodd" d="M22.8224 24.0417L17.416 18.5063V18.1188L22.8224 12.5834L22.9399 12.6569L29.3349 16.3783C31.1653 17.434 31.1653 19.1778 29.3349 20.2468L22.9399 23.9682L22.8224 24.0417Z" fill="black" stroke="white" stroke-width="2" mask="url(#path-6-inside-2_689_567)"/>
</g>
<g id="Vector_5">
<mask id="path-7-inside-3_689_567" fill="white">
<path fill-rule="evenodd" clip-rule="evenodd" d="M22.916 23.7998L17.3503 18.0834L0.916016 34.9625C1.51763 35.6243 2.52689 35.6986 3.65451 35.0536L22.916 23.7998Z"/>
</mask>
<path fill-rule="evenodd" clip-rule="evenodd" d="M22.916 23.7998L17.3503 18.0834L0.916016 34.9625C1.51763 35.6243 2.52689 35.6986 3.65451 35.0536L22.916 23.7998Z" fill="black" stroke="white" stroke-width="2" mask="url(#path-7-inside-3_689_567)"/>
</g>
<g id="Vector_6">
<mask id="path-8-inside-4_689_567" fill="white">
<path fill-rule="evenodd" clip-rule="evenodd" d="M22.916 12.6647L3.65451 2.01289C2.52689 1.38556 1.51434 1.47198 0.916016 2.0993L17.3503 18.0834L22.916 12.6647Z"/>
</mask>
<path fill-rule="evenodd" clip-rule="evenodd" d="M22.916 12.6647L3.65451 2.01289C2.52689 1.38556 1.51434 1.47198 0.916016 2.0993L17.3503 18.0834L22.916 12.6647Z" fill="black" stroke="white" stroke-width="2" mask="url(#path-8-inside-4_689_567)"/>
</g>
</g>
<rect x="-39" y="-18" width="232" height="74" rx="37" stroke="black" stroke-width="2"/>
</g>
</g>
</g>
</g>
</svg>
