<svg width="80" height="80" viewBox="0 0 80 80" fill="none" xmlns="http://www.w3.org/2000/svg">
<g id="4">
<path id="Union" d="M38.8927 17.9517L40 19.1634L41.1073 17.9517C44.7433 13.9727 49.8952 11.5 55.6024 11.5C66.5535 11.5 75.5 20.6327 75.5 31.9847C75.5 44.0347 66.7972 53.147 57.6558 59.3708C53.1237 62.4564 48.5812 64.7629 45.166 66.299C43.4605 67.066 42.0414 67.6386 41.0524 68.0181C40.6117 68.1873 40.2566 68.3179 40 68.4103C39.7434 68.3179 39.3883 68.1873 38.9476 68.0181C37.9586 67.6386 36.5395 67.066 34.834 66.299C31.4188 64.7629 26.8763 62.4564 22.3442 59.3708C13.2028 53.147 4.5 44.0347 4.5 31.9847C4.5 20.6327 13.4465 11.5 24.3976 11.5C30.1048 11.5 35.2567 13.9727 38.8927 17.9517Z" stroke="white" stroke-width="3"/>
</g>
</svg>
