<svg width="131" height="32" viewBox="0 0 131 32" fill="none" xmlns="http://www.w3.org/2000/svg">
<path fill-rule="evenodd" clip-rule="evenodd" d="M104.075 31.1989C99.7472 31.1989 95.8217 29.4461 93.0034 26.6417C90.1851 23.8373 88.4237 19.9311 88.4237 15.6243C88.4237 11.3176 90.1851 7.4114 93.0034 4.60698C95.8217 1.80257 99.7472 0.0498047 104.075 0.0498047H130.899V6.4599H104.075C101.609 6.4599 99.3949 7.46148 97.8348 9.06401C96.2243 10.6665 95.2178 13.2206 95.2178 15.6243C95.2178 18.0782 96.2243 20.2817 97.8348 21.8341C99.4452 23.4367 101.66 24.4382 104.075 24.4382H123.048L130.899 21.4836V24.288L112.631 31.1989H104.075Z" fill="white"/>
<path fill-rule="evenodd" clip-rule="evenodd" d="M128.484 28.0942C127.729 28.0942 127.175 28.2445 126.873 28.4949C126.42 28.7953 126.32 29.2461 126.32 29.5966V29.6968C126.32 30.0974 126.471 30.498 126.873 30.7985C127.226 31.0489 127.729 31.1991 128.534 31.1991H128.786C129.49 31.1991 130.044 31.0489 130.396 30.7985C130.849 30.498 131 30.0974 131 29.6968V29.5966C131 29.2461 130.899 28.7953 130.446 28.4949C130.094 28.2445 129.591 28.0942 128.836 28.0942H128.484ZM128.584 30.8486C127.779 30.8486 127.326 30.6983 127.075 30.4479C126.823 30.1976 126.773 29.8971 126.773 29.6467C126.773 29.3462 126.823 29.0457 127.075 28.8454C127.326 28.6451 127.779 28.4949 128.584 28.4949C129.39 28.4949 129.843 28.6451 130.094 28.8955C130.346 29.0958 130.396 29.3963 130.396 29.6968C130.396 29.9472 130.346 30.2977 130.094 30.498C129.893 30.6483 129.44 30.8486 128.584 30.8486ZM128.131 29.4964V29.196H128.836C128.937 29.196 128.987 29.196 129.037 29.2461C129.088 29.2961 129.088 29.3462 129.088 29.3963C129.088 29.4464 129.088 29.4964 129.037 29.5465C128.987 29.5966 128.937 29.5966 128.836 29.5966L128.131 29.4964ZM128.182 29.8971L128.131 30.4479H127.477V28.8955H129.037C129.289 28.8955 129.44 28.9456 129.541 28.9957C129.641 29.0457 129.692 29.1459 129.692 29.2461C129.692 29.3462 129.641 29.3963 129.591 29.4464C129.541 29.4964 129.44 29.5465 129.339 29.5465L129.138 29.5966L129.339 29.6467C129.44 29.6467 129.541 29.6968 129.591 29.7468C129.641 29.7969 129.692 29.8971 129.692 29.9472V30.2476C129.692 30.2977 129.692 30.3478 129.692 30.3478V30.3979H129.037C129.037 30.3979 128.987 30.3478 128.987 30.2977V30.1475C128.987 30.0473 128.987 29.9972 128.937 29.9472C128.886 29.8971 128.836 29.8971 128.735 29.8971H128.182Z" fill="white"/>
<path fill-rule="evenodd" clip-rule="evenodd" d="M44.3881 15.5745V31.1491H51.1821V21.7342L60.5932 18.1786H86.8637V11.7685H70.0546L51.1821 18.8797V15.224C51.1821 12.7701 52.1887 10.5666 53.7991 9.0142C55.4096 7.41168 57.6239 6.4101 60.0396 6.4101H86.8637V0H60.0396C55.7115 0 51.7861 1.75276 48.9678 4.55718C46.0992 7.41168 44.3881 11.2678 44.3881 15.5745Z" fill="white"/>
<path fill-rule="evenodd" clip-rule="evenodd" d="M0 15.5745V31.1491H6.79408V21.7342L16.2051 18.1786H42.4756V11.7685H25.6665L6.79408 18.9298V15.2741C6.79408 12.8202 7.80062 10.6167 9.41107 9.06428C11.0215 7.46176 13.2359 6.46018 15.6516 6.46018H42.4756V0H15.6516C11.3235 0 7.398 1.75276 4.57972 4.55718C1.76143 7.41168 0 11.2678 0 15.5745Z" fill="white"/>
</svg>
