<svg width="108" height="33" viewBox="0 0 108 33" fill="none" xmlns="http://www.w3.org/2000/svg">
<g id="Mir-logo.SVG 1">
<g id="sim">
<g id="mir-logo">
<g id="Group-5">
<path id="Combined-Shape" fill-rule="evenodd" clip-rule="evenodd" d="M17.1578 3.5797C18.0069 3.57453 20.5303 3.34305 21.5991 7.01727C22.3191 9.49227 23.4661 13.5464 25.0399 19.1798H25.6808C27.3686 13.2407 28.5281 9.18655 29.1591 7.01727C30.2391 3.30477 32.9391 3.57977 34.0191 3.57977L42.3516 3.57978V29.9797H33.8589V14.4218H33.2894L28.5552 29.9797H22.1655L17.4313 14.4103H16.8618V29.9797H8.36914V3.57978L17.1578 3.5797ZM54.5469 3.57978V19.1493H55.2244L60.9832 6.3466C62.101 3.79882 64.4836 3.57978 64.4836 3.57978H72.702V29.9798H64.0319V14.4103H63.3544L57.7086 27.213C56.5907 29.7492 54.0952 29.9798 54.0952 29.9798H45.8769V3.57978H54.5469ZM102.669 16.1252C101.46 19.6158 97.6622 22.1156 93.4573 22.1156H84.3651V29.9798H76.1204V16.1252H102.669Z" fill="black"/>
<path id="path24" fill-rule="evenodd" clip-rule="evenodd" d="M93.8544 3.57959H75.6875C76.1199 9.45712 81.0894 14.4887 86.2339 14.4887H103.242C104.223 9.60375 100.845 3.57959 93.8544 3.57959Z" fill="black"/>
</g>
</g>
</g>
</g>
</svg>
