<svg width="80" height="80" viewBox="0 0 80 80" fill="none" xmlns="http://www.w3.org/2000/svg">
<g id="9">
<circle id="lefteye" cx="22" cy="24" r="7.5" stroke="white" stroke-width="3"/>
<circle id="righteye" cx="58" cy="24" r="7.5" stroke="white" stroke-width="3"/>
<g id="smile">
<mask id="path-3-inside-1_739_211" fill="white">
<path d="M13 45C13 48.5457 13.6984 52.0567 15.0553 55.3324C16.4121 58.6082 18.4009 61.5847 20.9081 64.0919C23.4153 66.5991 26.3918 68.5879 29.6675 69.9447C32.9433 71.3016 36.4543 72 40 72C43.5457 72 47.0567 71.3016 50.3325 69.9447C53.6082 68.5879 56.5847 66.5991 59.0919 64.0919C61.5991 61.5847 63.5879 58.6082 64.9447 55.3325C66.3016 52.0567 67 48.5457 67 45L63.7268 45C63.7268 48.1158 63.1131 51.2012 61.9207 54.0798C60.7283 56.9585 58.9806 59.5741 56.7774 61.7774C54.5741 63.9806 51.9585 65.7283 49.0798 66.9207C46.2012 68.1131 43.1158 68.7268 40 68.7268C36.8842 68.7268 33.7988 68.1131 30.9202 66.9207C28.0415 65.7283 25.4259 63.9806 23.2226 61.7774C21.0194 59.5741 19.2717 56.9585 18.0793 54.0798C16.8869 51.2012 16.2732 48.1158 16.2732 45L13 45Z"/>
</mask>
<path d="M13 45C13 48.5457 13.6984 52.0567 15.0553 55.3324C16.4121 58.6082 18.4009 61.5847 20.9081 64.0919C23.4153 66.5991 26.3918 68.5879 29.6675 69.9447C32.9433 71.3016 36.4543 72 40 72C43.5457 72 47.0567 71.3016 50.3325 69.9447C53.6082 68.5879 56.5847 66.5991 59.0919 64.0919C61.5991 61.5847 63.5879 58.6082 64.9447 55.3325C66.3016 52.0567 67 48.5457 67 45L63.7268 45C63.7268 48.1158 63.1131 51.2012 61.9207 54.0798C60.7283 56.9585 58.9806 59.5741 56.7774 61.7774C54.5741 63.9806 51.9585 65.7283 49.0798 66.9207C46.2012 68.1131 43.1158 68.7268 40 68.7268C36.8842 68.7268 33.7988 68.1131 30.9202 66.9207C28.0415 65.7283 25.4259 63.9806 23.2226 61.7774C21.0194 59.5741 19.2717 56.9585 18.0793 54.0798C16.8869 51.2012 16.2732 48.1158 16.2732 45L13 45Z" stroke="white" stroke-width="6" mask="url(#path-3-inside-1_739_211)"/>
</g>
</g>
</svg>
