<svg width="135" height="140" viewBox="0 0 135 140" fill="none" xmlns="http://www.w3.org/2000/svg">
<g id="tnk">
<g id="Group 122">
<path id="Vector" d="M118.842 66.5136L120.234 62.0853L115.628 62.2288C115.239 62.2288 112.411 62.149 109.668 60.1721C109.872 60.192 110.077 60.22 110.285 60.22C113.109 60.22 115.841 58.5298 116.936 56.1146L118.918 51.7502C116.435 51.7819 114.164 51.4709 114.164 51.4709C114.144 51.4672 112.355 51.2398 110.285 49.1393C108.801 47.6328 106.964 46.8357 104.974 46.8357C104.104 46.8357 103.326 46.991 102.655 47.2022C102.76 46.8475 102.86 46.4889 102.916 46.1182C103.55 42.0328 100.903 38.9159 100.903 38.9198L97.4405 34.659L95.2947 39.6651C95.2866 39.6811 94.7448 40.8529 93.7742 41.4268C93.4814 39.9561 92.7632 38.302 91.227 36.7197C88.3307 33.7383 84.8045 33.2959 82.9594 33.2959C82.1051 33.2959 81.4953 33.3875 81.3467 33.4114L77.1669 34.2285C77.4077 33.2997 77.9211 31.6856 78.8598 30.2308L81.1664 26.6596L75.3616 27.3172L73.5124 23.415L69.9342 25.2485L66.6248 22L63.3235 25.2485L59.7331 23.415L57.8879 27.3172L52.0874 26.6596L54.398 30.2308C55.3367 31.6856 55.8501 33.2959 56.0868 34.2246L52.0996 33.4434L51.963 33.4194C51.7624 33.3875 51.1568 33.2959 50.2983 33.2959C48.4532 33.2959 44.9271 33.7422 42.0387 36.7197C40.4983 38.2981 39.7803 39.9561 39.4835 41.4268C38.5208 40.8609 37.9832 39.7051 37.9832 39.7051L35.8332 34.6709L32.3149 38.9596C31.8859 39.5137 29.7639 42.4433 30.3414 46.1261C30.4017 46.4928 30.498 46.8517 30.6023 47.2064C29.9364 46.9951 29.1581 46.8395 28.2876 46.8395C26.2981 46.8395 24.4607 47.6368 22.9725 49.1433C20.9105 51.236 19.1295 51.4709 19.1456 51.4709C19.1456 51.4709 17.2641 51.8059 14.3518 51.7541L16.3216 56.1186C17.4166 58.5379 20.1525 60.2239 22.9725 60.2239C23.185 60.2239 23.3896 60.1961 23.5983 60.176C20.8624 62.1531 18.0345 62.2329 17.6935 62.2367L13 62.0853L14.4201 66.5097C15.1341 68.7894 17.5209 72.5681 22.094 72.9746C21.5965 75.0473 20.4935 77.367 18.0706 78.3673L14.5767 79.7981L16.482 83.0943C17.557 84.872 20.0804 86.9528 23.6745 86.9528C24.4526 86.9488 25.2027 86.8729 25.925 86.7216C26.1095 87.5347 26.342 88.3477 26.6148 89.1529C27.6859 92.3177 26.7632 94.5257 26.7514 94.5498L25.0263 98.1408L28.8773 99.1491C28.9253 99.1653 30.0887 99.4802 31.5447 99.4802C32.2067 99.4802 32.8366 99.4124 33.4304 99.2727C33.8796 99.1692 34.3088 99.0297 34.7219 98.8624C35.2193 99.7511 35.8251 100.56 36.5313 101.286C38.9981 103.801 42.4922 105.076 46.9207 105.076H46.9367L50.0979 105.036L43.5672 107.731L48.5254 110.11C50.3263 110.983 52.4646 112.015 54.6386 112.805L54.021 114.487L55.7298 115.26C55.8822 115.328 59.1675 116.79 64.6312 117.101C64.6312 117.101 65.9508 117.161 66.6771 117.161C67.4031 117.161 68.7068 117.097 68.7068 117.097C74.1342 116.778 77.3955 115.332 77.548 115.26L79.2608 114.483L78.6351 112.797C80.8735 111.984 83.0877 110.912 84.8126 110.074L89.6785 107.727L83.1679 105.028L86.3411 105.068C90.7737 105.068 94.2717 103.793 96.7346 101.274C97.4368 100.552 98.0424 99.7431 98.5438 98.8543C98.957 99.0218 99.3902 99.1613 99.8396 99.2648C100.429 99.4043 101.059 99.4721 101.721 99.4721C103.153 99.4721 104.328 99.1572 104.36 99.1491L108.227 98.1329L106.542 94.6095C106.502 94.5176 105.58 92.3135 106.651 89.145C106.924 88.3357 107.152 87.5227 107.337 86.7135C108.063 86.8651 108.821 86.9447 109.603 86.9447C114.18 86.9447 116.375 83.7442 116.8 83.0506L118.685 79.7903L115.191 78.3634C112.764 77.3629 111.665 75.0392 111.172 72.9704C115.681 72.588 118.104 68.8094 118.842 66.5136ZM56.3918 35.7511L56.3436 35.7631L56.3836 35.7113L56.3918 35.7511Z" fill="white"/>
<path id="Vector_2" d="M66.6291 35.5547C62.9303 35.5586 60.1584 36.7623 59.5527 38.1773L66.6291 40.9514L73.7053 38.1773C73.1036 36.7623 70.3316 35.5586 66.6291 35.5547Z" fill="white"/>
<path id="Vector_3" d="M66.7019 108.994H66.694H66.6337H66.5657H66.5616C64.3192 109.01 61.2343 108.552 59.7459 108.121L57.957 112.932C59.1364 113.35 63.1318 114.148 66.6337 114.148C70.1275 114.148 74.1271 113.347 75.3025 112.932L73.5175 108.121C72.025 108.555 68.9443 109.01 66.7019 108.994Z" fill="white"/>
<path id="Vector_4" d="M80.2403 104.211C78.9084 104.96 75.936 106.084 74.207 106.607L75.6591 110.58C78.3349 109.855 80.5412 109.006 82.3662 108.097L79.3536 107.101L80.2403 104.211Z" fill="white"/>
<path id="Vector_5" d="M53.0224 104.211L53.913 107.101L50.8965 108.097C52.7175 109.006 54.9358 109.855 57.5994 110.58L59.0517 106.607C57.3308 106.084 54.3543 104.956 53.0224 104.211Z" fill="white"/>
<path id="Vector_6" d="M66.6294 30.9566C69.4173 30.9566 72.1532 31.6183 74.2552 32.7823C74.4478 32.1405 74.7164 31.3632 75.0818 30.5503L74.2874 30.6458L73.4529 30.7335L73.1 29.9801L72.0371 27.7481L70.0994 28.7526L69.3452 29.1353L68.7435 28.5453L66.6375 26.4727L64.5356 28.5453L63.9338 29.1353L63.1795 28.7526L61.2302 27.7481L60.1792 29.9801L59.8181 30.7335L58.9837 30.6458L58.1895 30.5503C58.5546 31.3673 58.8193 32.1405 59.0158 32.7823C61.1218 31.6183 63.8496 30.9566 66.6294 30.9566Z" fill="white"/>
<path id="Vector_7" d="M109.194 56.7534C109.555 56.877 109.924 56.9328 110.289 56.9328C111.866 56.9328 113.39 55.9203 113.916 54.7604C113.916 54.7604 111.023 54.585 107.915 51.4482C106.924 50.4318 105.877 50.1289 104.978 50.1289C103.582 50.1289 102.535 50.8622 102.535 50.8622C106.29 52.8473 107.056 56.0359 109.194 56.7534Z" fill="white"/>
<path id="Vector_8" d="M22.97 56.9328C23.335 56.9328 23.7041 56.877 24.0571 56.7534C26.2033 56.0359 26.9735 52.8473 30.7281 50.8622C30.7281 50.8622 29.677 50.1289 28.289 50.1289C27.3866 50.1289 26.3395 50.4318 25.3448 51.4482C22.2398 54.585 19.3477 54.7604 19.3477 54.7604C19.865 55.9203 21.3934 56.9328 22.97 56.9328Z" fill="white"/>
<path id="Vector_9" d="M110.213 69.7101C110.278 69.7139 110.334 69.7139 110.402 69.7139C114.337 69.7139 115.673 65.525 115.673 65.525H115.597C114.874 65.525 109.022 65.3575 104.886 60.1321C102.162 56.6963 99.932 53.675 95.5233 52.4874L95.0901 52.4115L94.9937 51.9732C94.8735 51.3034 95.3347 50.6778 96.3818 50.0003C102.463 46.0424 98.3354 40.9962 98.3354 40.9962C98.3354 40.9962 96.5986 45.0338 92.7112 45.0338C92.6191 45.0338 92.5188 45.0299 92.4224 45.0299C91.9812 45.006 91.5559 44.9901 91.1268 44.8984L90.4087 44.7589C90.4087 44.7589 91.5161 41.7656 88.8442 39.0152C86.8305 36.9387 84.3796 36.5879 82.9636 36.5879C82.2495 36.5879 81.7963 36.6797 81.7963 36.6797C83.14 38.4254 84.1108 41.3192 82.5584 43.1046C81.2186 44.6393 77.9453 44.715 77.9453 47.0028C77.9453 47.9714 78.8558 49.1035 80.4926 50.1197C85.4145 53.2007 90.3005 57.2863 92.3302 62.7626C94.8696 69.5944 92.0094 74.1262 87.9257 76.725C87.9257 76.725 89.2055 77.8967 91.0626 78.0443C91.4398 78.0802 91.8087 78.0961 92.1538 78.0961C96.073 78.0961 98.0987 76.2706 98.0987 76.2706C98.0987 76.2706 97.7657 78.7935 95.7239 81.1374C93.8426 83.3015 91.3716 84.5731 87.6048 84.6288C87.6048 84.6288 87.4844 86.3667 89.1531 87.8693C90.2203 88.8179 92.6873 89.1289 92.6873 89.1289C92.6873 89.1289 88.0701 90.0574 87.5607 96.8335C87.2838 100.504 86.3411 101.78 86.3411 101.78H86.4253C97.1399 101.78 96.863 92.6483 96.863 92.6483C96.863 92.6483 97.6092 95.3506 100.598 96.0561C100.959 96.1519 101.344 96.1877 101.713 96.1877C102.676 96.1877 103.51 95.9645 103.51 95.9645C103.51 95.9645 101.946 92.6842 103.498 88.0965C104.786 84.2901 104.577 81.468 104.577 81.468C104.577 81.468 106.021 83.6363 109.6 83.6564H109.636C112.616 83.6564 113.916 81.4122 113.916 81.4122C106.771 78.4668 107.477 68.9568 107.477 68.9568C107.477 68.9568 108.404 69.6423 110.213 69.7101ZM108.063 79.6425C105.159 78.2197 103.322 74.4411 102.876 73.078C102.395 80.5712 98.7124 85.7728 94.4082 90.779C92.1739 93.3737 91.3954 95.8967 91.3954 95.8967C91.3954 95.8967 91.8249 93.0389 93.7582 90.7111C97.774 85.9162 101.588 79.9495 101.873 73.0501C102.07 68.2351 100.822 64.3292 98.8768 61.1126C99.9639 64.4646 99.8116 68.5701 96.1171 72.4004C96.1171 72.4004 103.47 63.6437 93.1889 54.6676C89.0731 51.2516 84.5721 49.1433 82.2537 47.6484C90.6294 50.3629 94.717 47.3735 94.717 47.3735C92.0415 49.6773 88.5796 49.6375 86.4336 49.3066C87.0151 49.5898 87.6208 49.8846 88.2747 50.2314C95.3347 54.0418 101.681 60.3114 102.764 68.9966V68.9288C104.409 77.4543 108.063 79.6425 108.063 79.6425Z" fill="white"/>
<path id="Vector_10" d="M40.5716 89.1289C40.5716 89.1289 43.0384 88.8219 44.1056 87.8693C45.7702 86.3667 45.6541 84.6288 45.6541 84.6288C41.8832 84.5772 39.4163 83.3015 37.5228 81.1413C35.4972 78.7977 35.1602 76.2745 35.1602 76.2745C35.1602 76.2745 37.1857 78.1001 41.1009 78.1001C41.4541 78.1001 41.8191 78.0841 42.1961 78.0483C44.0534 77.9009 45.337 76.729 45.337 76.729C41.2535 74.1303 38.3893 69.5944 40.9246 62.7626C42.9584 57.2903 47.8403 53.2007 52.7622 50.1197C54.3989 49.1035 55.3094 47.9753 55.3094 47.0028C55.3094 44.715 52.0403 44.6393 50.7005 43.1046C49.1479 41.3192 50.1227 38.4213 51.4624 36.6797C51.4624 36.6797 51.0172 36.5879 50.2991 36.5879C48.8872 36.5879 46.4361 36.9387 44.4225 39.0152C41.7428 41.7656 42.854 44.7589 42.854 44.7589L42.136 44.8984C41.7068 44.9901 41.2775 45.006 40.8402 45.0299C40.7401 45.0299 40.6516 45.0338 40.5554 45.0338C36.6603 45.0338 34.9313 41.0003 34.9313 41.0003C34.9313 41.0003 30.8035 46.0461 36.8811 50.004C37.928 50.6817 38.3852 51.3076 38.265 51.9772L38.1686 52.4156L37.7273 52.4913C33.3269 53.679 31.0926 56.7005 28.3688 60.1362C24.2409 65.3535 18.3963 65.525 17.6663 65.525H17.5859C17.5859 65.525 18.9217 69.7139 22.857 69.7139C22.9211 69.7139 22.9772 69.7139 23.0454 69.7101C24.8548 69.6461 25.7854 68.9568 25.7854 68.9568C25.7854 68.9568 26.4833 78.4629 19.347 81.4122C19.347 81.4122 20.6468 83.6564 23.6272 83.6564H23.6633C27.2454 83.6363 28.6857 81.468 28.6857 81.468C28.6857 81.468 28.477 84.2901 29.7606 88.0965C31.3131 92.6842 29.7568 95.9645 29.7568 95.9645C29.7568 95.9645 30.591 96.1877 31.5498 96.1877C31.9227 96.1877 32.3041 96.1519 32.661 96.0561C35.6454 95.3506 36.3957 92.6483 36.3957 92.6483C36.3957 92.6483 36.1227 101.78 46.8374 101.78H46.9136C46.9136 101.78 45.9749 100.504 45.7022 96.8335C45.1886 90.0574 40.5716 89.1289 40.5716 89.1289ZM38.8507 90.779C34.5463 85.7728 30.8679 80.5712 30.3823 73.078C29.9373 74.437 28.1078 78.2197 25.2039 79.6425C25.2039 79.6425 28.8542 77.4543 30.4947 68.9288V68.9966C31.582 60.3155 37.924 54.0418 44.9882 50.2314C45.634 49.8805 46.2475 49.5857 46.8253 49.3066C44.6791 49.6375 41.2174 49.6773 38.5419 47.3735C38.5419 47.3735 42.6295 50.3629 51.0011 47.6484C48.6826 49.1433 44.1858 51.2516 40.07 54.6676C29.7848 63.6437 37.1418 72.4004 37.1418 72.4004C33.4432 68.566 33.2948 64.4646 34.3819 61.1126C32.4324 64.333 31.1886 68.2351 31.3894 73.0501C31.6701 79.9495 35.4849 85.9162 39.4926 90.7111C41.4299 93.035 41.8672 95.8967 41.8672 95.8967C41.8672 95.8967 41.0808 93.3737 38.8507 90.779Z" fill="white"/>
<path id="Vector_11" d="M58.7073 55.7438C58.8837 55.931 59.0561 56.1344 59.2207 56.3377C59.2609 56.3856 59.2969 56.4294 59.3367 56.4851C59.4893 56.6885 59.646 56.9037 59.7942 57.123C59.8263 57.1668 59.8584 57.2186 59.8945 57.2704C60.075 57.5414 60.2435 57.8204 60.412 58.1073C61.9565 60.7582 64.4315 62.3404 66.6258 62.3445C68.824 62.3404 71.291 60.7582 72.8434 58.1073C73.0159 57.8125 73.1883 57.5256 73.3689 57.2584C73.397 57.2186 73.425 57.1827 73.4491 57.1427C73.6016 56.9157 73.762 56.6925 73.9305 56.4773C73.9666 56.4294 73.9987 56.3896 74.0307 56.3498C74.2033 56.1385 74.3797 55.931 74.5602 55.7399C74.5925 55.7079 74.6164 55.6802 74.6446 55.6561C75.4307 54.8551 76.3696 54.2452 77.597 53.9064L77.0515 53.5915H77.0192L74.8452 52.3359L72.6109 51.0645L66.6417 54.2929L66.6258 54.281L66.6137 54.2929L60.6406 51.0645L58.4103 52.3319L56.2321 53.5876H56.2081L55.6543 53.9023C56.8859 54.2412 57.8206 54.8431 58.6109 55.6443C58.647 55.6762 58.671 55.7121 58.7073 55.7438ZM64.2109 55.4847H66.7381H69.2611V57.2066C68.6675 56.4851 67.5122 56.6327 67.5122 56.6327V59.1159C67.5122 59.1159 67.5564 60.3355 67.9856 60.8658H66.7381H65.4864C65.9236 60.3394 65.9638 59.1159 65.9638 59.1159V56.6327C65.9638 56.6327 64.8126 56.4851 64.2109 57.2066V55.4847Z" fill="white"/>
<path id="Vector_12" d="M66.1128 52.145V42.0651L59.6543 39.8887L61.3592 49.6581L66.1128 52.145ZM64.7248 44.5403V46.1584L64.412 46.0149C64.3959 46.0031 63.9384 45.8992 63.1363 45.2696C61.8123 44.2493 61.7885 43.3087 61.7885 43.3087L64.7248 44.5403Z" fill="white"/>
<path id="Vector_13" d="M71.9058 49.6581L73.6028 39.8887L67.1484 42.0651V52.145L71.9058 49.6581ZM68.5363 44.5403L71.4726 43.3126C71.4726 43.3126 71.4485 44.2532 70.1208 45.2736C69.3224 45.9034 68.8611 46.0068 68.8451 46.0191L68.5321 46.1625V44.5403H68.5363Z" fill="white"/>
<path id="Vector_14" d="M56.9778 75.5146C57.6075 75.7418 58.3698 75.7899 58.759 75.7899C58.775 75.7418 58.7951 75.6821 58.8152 75.6104C58.8513 75.4947 58.8832 75.3832 58.9074 75.2557C59.0156 74.6976 59.0558 74.0639 59.0637 73.6573C58.799 73.4938 58.426 73.2029 58.2173 72.7684C57.9766 72.2663 57.6357 72.0352 57.1341 72.0352C56.4845 72.0352 55.7865 72.4218 55.4897 72.605C55.253 73.9961 56.2839 75.2596 56.9778 75.5146Z" fill="white"/>
<path id="Vector_15" d="M71.2631 70.1641C70.0637 71.4593 67.717 73.7155 67.6006 73.8309L67.4602 73.9744L60.0431 73.8587C60.039 74.5884 59.9188 75.2101 59.8023 75.6644C59.7824 75.7402 59.7623 75.82 59.7422 75.8997L68.5672 77.4742C69.486 76.8361 72.0132 75.0026 72.9919 74.2854C72.2779 73.249 72.2099 72.0215 72.3703 71.1565C71.9048 70.8575 71.5479 70.5229 71.2631 70.1641Z" fill="white"/>
<path id="Vector_16" d="M72.2683 61.3009C70.5594 62.9871 68.9187 63.6088 67.4546 63.7523C67.1899 63.7801 66.9211 63.796 66.6484 63.796H66.6283H66.6121C66.3393 63.796 66.0666 63.7801 65.8019 63.7523C65.5451 63.7285 65.2765 63.6885 65.0075 63.6287C64.9113 64.0075 64.7909 64.8006 65.1362 65.5499C65.445 66.2315 66.0747 66.7375 66.9932 67.0725L67.3021 67.1922L67.3062 67.5228C67.3062 67.6225 67.3783 69.7667 69.7331 70.3607C70.1182 69.9662 70.4672 69.6114 70.724 69.3166C70.2425 68.1926 70.4952 67.0446 71.1932 66.4827C71.1611 66.6022 70.8564 69.4162 73.1268 70.4604L73.4997 70.636L73.3875 71.0303C73.3515 71.1501 72.5933 73.8723 75.341 74.8845L75.8266 75.068L75.6098 75.5384C75.5617 75.642 74.4827 78.1132 77.0217 79.516H82.5295V75.1717C80.5721 74.9326 79.7416 73.37 79.5291 72.2619C78.6182 72.1066 77.9125 71.716 77.431 71.0782C76.2757 69.5677 77.2706 68.1845 77.2826 68.1087C77.2785 68.1209 77.2826 69.5955 78.1971 70.5043C78.6505 70.9426 79.188 71.2813 80.0023 71.3572L80.4034 71.3931L80.4396 71.7996C80.4477 71.8873 80.6683 73.8803 82.5336 74.195L82.5295 65.3229C82.5295 63.9476 82.9347 62.5644 83.4201 61.2891H72.2683V61.3009Z" fill="white"/>
<path id="Vector_17" d="M57.4472 65.3646L57.2988 71.0164L57.9447 71.1122L59.525 65.6915L58.7227 64.0254L57.4472 65.3646Z" fill="white"/>
<path id="Vector_18" d="M74.8728 91.286C74.9211 91.286 74.9773 91.2939 75.0295 91.3059C76.0121 91.585 76.2611 95.1082 77.9859 95.4233C78.1542 95.4591 78.3107 95.467 78.4471 95.467C78.9445 95.467 79.2413 95.2558 79.5623 94.8812C79.5623 94.8812 78.6958 93.526 78.046 92.6132C77.1834 91.4175 76.5137 89.9707 74.9089 89.9707C74.8728 89.9707 74.8247 89.9707 74.7847 89.9746C74.2552 90.0026 73.9304 90.2578 73.9304 90.2578C73.2804 89.8511 72.6746 89.7115 72.1251 89.7115C71.1182 89.7115 70.336 90.1699 69.947 90.1699H69.9308L66.3446 89.8191C65.7831 89.7673 65.3418 89.2055 65.1814 88.9862C65.1412 88.9263 65.1211 88.8904 65.1211 88.8904C65.1211 88.7948 65.1211 88.6951 65.1132 88.6074C64.9928 85.6939 62.7224 84.4463 61.916 84.4264C61.916 84.4264 62.0123 83.8725 61.7918 83.6612L61.0015 84.6136L58.406 83.3184L60.2552 85.4667L58.6868 87.2164C58.4903 87.4158 58.5144 87.6868 58.5946 87.7983L59.2725 88.3922L60.1308 87.874C60.1752 87.8422 60.2514 87.8342 60.3474 87.8342C60.5841 87.8342 60.9412 87.8941 61.2621 87.8941C61.6111 87.8941 61.916 87.8182 61.9522 87.4915C61.8438 88.5716 60.837 90.4489 61.499 91.9237L61.9883 93.0357L58.8193 92.5813L57.335 95.0723C56.8778 95.9016 56.8053 96.7984 57.2466 97.2845L57.8003 97.9742C57.8003 97.9742 58.5786 97.1531 58.755 96.6151L58.5023 96.34C58.2897 96.1087 58.3017 95.9015 58.4302 95.6505L59.3606 94.1158L63.1034 94.9927L63.2999 94.6581C63.5527 94.2394 63.9177 94.1119 64.319 94.1119C64.4833 94.1119 64.6518 94.1318 64.8282 94.1597C65.5223 94.2953 66.6656 94.4786 67.8089 94.4786C69.0645 94.4786 70.3079 94.2553 70.9698 93.5181C72.3256 95.5149 75.0734 95.8338 74.8569 96.8462L74.135 100.266C74.6123 100.246 75.0734 100.214 75.5108 100.154L76.1966 96.595C76.2729 96.2086 76.3452 95.6864 76.3452 95.6864C76.0805 95.4193 75.4386 94.8534 75.0774 94.1676C74.5922 93.243 74.8569 92.7606 74.4036 91.557C74.4197 91.5649 74.5561 91.286 74.8728 91.286ZM60.873 86.2876C60.6886 86.2837 60.5561 86.1282 60.5642 85.945C60.5804 85.7696 60.7288 85.6301 60.9093 85.646C61.0938 85.6541 61.226 85.8135 61.2181 85.9889C61.202 86.1641 61.0496 86.2999 60.873 86.2876Z" fill="white"/>
<path id="Vector_19" d="M55.7641 94.5216C55.7641 94.5216 57.0038 94.0154 57.1161 93.6526L56.9518 93.2421C56.8353 92.9751 56.8514 92.6843 57.0761 92.5247L58.4159 91.604L60.6543 92.0304C60.6543 92.0304 60.2491 91.5283 60.2893 90.8546L58.1551 90.4043L56.1414 91.6239C55.2789 92.2657 55.2147 93.3139 55.4995 93.9356L55.7641 94.5216Z" fill="white"/>
<path id="Vector_20" d="M71.584 100.316C71.985 100.3 72.4263 100.292 72.9119 100.292C72.9119 100.292 74.0631 96.9481 74.1273 96.8405C73.4815 96.5575 72.1417 95.8521 71.6242 95.5293C71.9653 96.0353 72.7954 96.6175 72.6311 97.0638L71.584 100.316Z" fill="white"/>
<path id="Vector_21" d="M82.5435 80.4844H50.7207V92.3781C50.7207 97.2407 54.2628 100.286 59.4898 100.286C63.8583 100.286 65.0094 100.453 66.6341 102.056C67.7532 100.948 68.68 100.533 70.5813 100.377L70.6256 100.194L71.6284 97.1132C71.5722 97.0454 69.9317 95.1921 69.9317 95.1921C69.2817 95.4072 68.7362 95.4431 67.8176 95.4431C66.8748 95.4431 65.8117 95.3355 64.6606 95.1203C64.5441 95.0925 64.4359 95.0845 64.3275 95.0845C64.1872 95.0845 64.175 95.0965 64.1389 95.1643L63.9383 95.491L63.5733 96.0889L62.8875 95.9334L59.8347 95.22L59.4177 95.9054L59.4817 95.9771L59.8548 96.3837L59.6904 96.914C59.4657 97.6076 58.7356 98.4165 58.515 98.6398L57.7529 99.4529L57.0588 98.5799L56.5373 97.9304C55.9879 97.3205 55.8594 96.3837 56.1684 95.4033C56.1601 95.4114 56.1483 95.4153 56.1363 95.4153L55.2738 95.77L54.8846 94.9331L54.6119 94.339C54.1424 93.295 54.3151 91.7682 55.5785 90.8475L58.0377 89.4683L60.3765 89.9268C60.4326 89.7036 60.5168 88.9065 60.5848 88.7031C60.5408 88.6994 60.4967 88.6871 60.4525 88.6871L59.1047 89.1853L57.805 88.2926C57.805 88.2926 57.2957 87.8065 57.7567 87.3201L59.0164 85.4268L55.8275 81.449L60.7292 83.4499L61.0542 83.0473L61.7162 82.2622L62.4663 82.9717C62.6789 83.1748 62.7992 83.4259 62.8593 83.6769C64.211 84.1991 66.6302 85.7417 66.8427 88.2489L66.0845 88.5518V88.5717C66.2571 88.7748 66.4014 88.8588 66.4457 88.8665L69.9435 89.2094C70.0318 89.1934 70.1442 89.1536 70.2685 89.1177C70.7019 88.9701 71.3556 88.7589 72.1299 88.7589C72.7596 88.7589 73.3694 88.9025 73.9549 89.1735C74.1715 89.0937 74.4364 89.034 74.7412 89.0141L74.9097 89.0101C76.783 89.0101 77.7136 90.4012 78.46 91.5092C78.5843 91.7004 78.7085 91.8838 78.837 92.0632C79.4907 92.9799 80.3452 94.3232 80.3813 94.379L80.7664 94.9767L80.2932 95.5229C79.9282 95.9413 79.3825 96.4318 78.4438 96.4318C78.2512 96.4318 78.0388 96.4117 77.81 96.3679C77.6094 96.3318 77.429 96.2723 77.2522 96.2006C77.2243 96.3837 77.1882 96.603 77.1521 96.7904L76.5382 99.9709C80.2088 99.0741 82.5395 96.32 82.5395 92.382L82.5435 80.4844Z" fill="#FFDD2D"/>
<path id="Vector_22" d="M50.7204 79.5278H75.467C74.2313 78.2605 74.2475 76.6543 74.5644 75.6099C74.2033 75.4384 73.9065 75.2313 73.6418 75.0081C72.675 75.7175 69.7225 77.8538 68.9523 78.388L68.7879 78.4996L59.0762 76.7538H58.8795C58.647 76.7538 58.306 76.7459 57.933 76.702C57.8287 77.1365 57.4515 77.4354 57.0183 77.4354C56.9702 77.4354 56.9141 77.4315 56.8618 77.4195C56.6092 77.3755 56.3884 77.248 56.24 77.0368C56.0877 76.8297 56.0276 76.5826 56.0717 76.3274L56.1078 76.1201C55.1049 75.4185 54.1823 73.8521 54.5915 72.2019L54.6315 72.0266L54.7718 71.927C54.7919 71.9111 54.9604 71.7996 55.2093 71.6559L54.5032 71.5483C54.2385 71.5006 54.0619 71.2572 54.1021 70.9983C54.1463 70.7352 54.395 70.5478 54.6557 70.5997L56.3364 70.8629L56.489 64.9797L58.9919 62.349L60.5524 65.6135L58.9038 71.2734L60.388 71.5046C60.6487 71.5444 60.8293 71.7875 60.789 72.0545C60.749 72.2898 60.5484 72.453 60.3117 72.453C60.2877 72.453 60.2595 72.453 60.2356 72.4493L59.0279 72.254C59.0441 72.2898 59.0681 72.3095 59.0841 72.3495C59.2126 72.6124 59.4974 72.804 59.6661 72.8836L67.071 72.9992C67.3839 72.6964 68.162 71.9389 68.9604 71.1378C67.1392 70.4523 66.4774 68.8898 66.3648 67.8534C65.3461 67.4231 64.6441 66.7773 64.2549 65.9363C63.7815 64.896 63.9502 63.8557 64.0744 63.3495C63.0876 62.9908 62.0488 62.3372 60.9897 61.293H49.8379C50.3152 62.5683 50.7204 63.9513 50.7204 65.3266V79.5278Z" fill="#FFDD2D"/>
<path id="Vector_23" d="M60.9121 85.6458C60.7315 85.6296 60.579 85.7694 60.5672 85.9446C60.5549 86.128 60.6913 86.2833 60.876 86.2874C61.0524 86.3032 61.2089 86.1676 61.2248 85.9883C61.2248 85.8129 61.0965 85.6495 60.9121 85.6458Z" fill="black"/>
<path id="Vector_24" d="M82.4991 107.212L80.6658 106.514L81.1711 104.633L81.7289 102.58C81.7289 102.58 78.4796 104.33 73.9026 105.645C72.6027 106.016 71.62 106.183 71.62 106.183V107.578C71.62 107.578 69.1729 108.001 66.698 108.001H66.67H66.6339H66.5856H66.5576C64.0825 108.001 61.6356 107.578 61.6356 107.578V106.183C61.6356 106.183 60.6488 106.016 59.3532 105.645C54.776 104.33 51.5307 102.58 51.5307 102.58L52.0803 104.633L52.5978 106.514L50.7605 107.212L48.7227 107.969C51.0614 109.089 54.2986 110.723 57.2631 111.528L56.5653 113.426C56.5653 113.426 60.3238 115.127 66.5856 115.143V115.147H66.6057H66.6339H66.6579H66.6741V115.143C72.9438 115.127 76.6984 113.426 76.6984 113.426L75.9964 111.528C78.9611 110.723 82.2062 109.089 84.5329 107.969L82.4991 107.212ZM50.897 108.097L53.9136 107.1L53.0231 104.21C54.3509 104.96 57.3313 106.084 59.0562 106.606L57.5999 110.579C54.9366 109.85 52.7183 109.001 50.897 108.097ZM66.6339 114.147C63.132 114.147 59.1324 113.346 57.957 112.931L59.7461 108.12C61.2304 108.551 64.3192 109.009 66.5616 108.993H66.5657H66.6339H66.694H66.7021C68.9445 109.009 72.0252 108.551 73.5175 108.12L75.3025 112.931C74.1271 113.35 70.1317 114.147 66.6339 114.147ZM75.6596 110.579L74.2075 106.606C75.9365 106.084 78.9089 104.96 80.2405 104.21L79.3541 107.1L82.3666 108.097C80.5415 109.001 78.3352 109.85 75.6596 110.579Z" fill="black"/>
<path id="Vector_25" d="M66.6291 32.1201C70.3598 32.1201 73.3444 33.3477 74.993 34.6591C74.993 34.6591 75.4824 31.7295 77.1552 29.1427L74.1507 29.4815L72.5782 26.1613L69.5575 27.7078L66.6291 24.8301L63.7088 27.7078L60.6842 26.1613L59.1158 29.4815L56.1113 29.1427C57.7839 31.7295 58.2735 34.6591 58.2735 34.6591C59.9262 33.3477 62.9025 32.1201 66.6291 32.1201ZM58.9794 30.6454L59.8139 30.7331L60.1747 29.9796L61.226 27.7476L63.1753 28.748L63.9295 29.1308L64.5314 28.5409L66.6332 26.4682L68.7392 28.5409L69.3409 29.1308L70.095 28.748L72.0325 27.7476L73.0957 29.9796L73.4487 30.7331L74.2831 30.6454L75.0772 30.5497C74.7122 31.3668 74.4435 32.1399 74.251 32.7818C72.1489 31.6178 69.4131 30.9563 66.6252 30.9563C63.8493 30.9563 61.1176 31.6178 59.0076 32.7818C58.8109 32.1399 58.5463 31.3629 58.1813 30.5497L58.9794 30.6454Z" fill="black"/>
<path id="Vector_26" d="M110.398 70.9933C115.224 70.9933 116.837 66.1147 116.905 65.9074L117.443 64.1897L115.633 64.2454H115.625C114.987 64.2454 109.664 64.1059 105.889 59.3389L105.532 58.8965C103.065 55.7796 100.727 52.8182 96.547 51.467C96.6672 51.3594 96.8398 51.2238 97.0765 51.0723C99.2946 49.6215 100.587 47.8598 100.911 45.8151C101.385 42.7379 99.4111 40.2866 99.3228 40.187L97.9789 38.537L97.1408 40.494C97.0846 40.6176 95.6725 43.7505 92.7039 43.7505H92.4834C92.2788 43.7383 92.0862 43.7304 91.8937 43.7147C91.9979 42.3156 91.7411 40.1512 89.7678 38.1224C87.3969 35.6791 84.4847 35.3125 82.9602 35.3125C82.1459 35.3125 81.6043 35.4121 81.5482 35.4201L79.5182 35.8186L80.7699 37.4568C81.7529 38.7204 82.6433 41.052 81.5884 42.2718C81.2514 42.6582 80.5574 42.9731 79.8915 43.288C78.5236 43.9137 76.6582 44.7827 76.6582 46.9987C76.6582 48.4336 77.7774 49.9325 79.8073 51.2078C85.8163 54.9626 89.523 58.8805 91.1235 63.2052C93.5986 69.8575 90.3693 73.6519 87.2323 75.6488L85.8244 76.5494L87.0558 77.6734C87.2203 77.8171 88.7286 79.1364 90.955 79.3277C91.3762 79.3555 91.7814 79.3796 92.1584 79.3796C93.5864 79.3796 94.802 79.1563 95.7888 78.8574C95.516 79.3317 95.183 79.8139 94.7618 80.3002C92.9688 82.3648 90.7625 83.3054 87.5893 83.3535L86.4101 83.3734L86.3179 84.5492C86.3057 84.7841 86.2174 86.9646 88.2954 88.8179C88.6123 89.1048 88.9974 89.3401 89.3987 89.5354C87.9905 90.7948 86.5585 92.9871 86.2818 96.7456C86.0489 99.8823 85.295 101.042 85.2868 101.054L83.9831 103.031L86.338 103.063C90.2288 103.063 93.2094 101.995 95.2752 99.8824C96.4947 98.631 97.1928 97.2201 97.6059 95.9684C98.2838 96.5424 99.1585 97.0447 100.298 97.3117C100.731 97.4112 101.204 97.4672 101.714 97.4672C102.813 97.4672 103.731 97.2358 103.836 97.212L105.34 96.8134L104.674 95.4184C104.626 95.3068 103.37 92.5088 104.722 88.515C105.304 86.7892 105.601 85.2427 105.745 84.0388C106.692 84.5293 107.959 84.9356 109.6 84.9398C113.323 84.9398 114.964 82.1776 115.04 82.0619L115.774 80.7944L114.414 80.2366C109.977 78.4069 108.994 73.4924 108.798 70.83C109.199 70.9056 109.656 70.9774 110.174 70.9933H110.398ZM113.916 81.4124C113.916 81.4124 112.617 83.6563 109.636 83.6563H109.6C106.022 83.6364 104.578 81.468 104.578 81.468C104.578 81.468 104.786 84.2901 103.495 88.0965C101.942 92.684 103.507 95.9644 103.507 95.9644C103.507 95.9644 102.672 96.1877 101.709 96.1877C101.341 96.1877 100.956 96.1518 100.594 96.0561C97.6059 95.3508 96.8599 92.6481 96.8599 92.6481C96.8599 92.6481 97.1366 101.78 86.4222 101.78H86.338C86.338 101.78 87.2804 100.504 87.5613 96.8333C88.0707 90.0576 92.6879 89.1289 92.6879 89.1289C92.6879 89.1289 90.225 88.8218 89.1578 87.8692C87.4891 86.3667 87.6054 84.6288 87.6054 84.6288C91.3762 84.577 93.8432 83.3016 95.7245 81.1371C97.7625 78.7935 98.0994 76.2706 98.0994 76.2706C98.0994 76.2706 96.0736 78.0961 92.1542 78.0961C91.8093 78.0961 91.4402 78.0802 91.0634 78.0443C89.21 77.8969 87.9265 76.725 87.9265 76.725C92.006 74.1262 94.87 69.5905 92.331 62.7586C90.2971 57.2861 85.4111 53.1968 80.4932 50.1155C78.8566 49.0995 77.9459 47.9713 77.9459 46.9987C77.9459 44.711 81.2192 44.6393 82.5629 43.1006C84.1116 41.3151 83.1408 38.4173 81.7969 36.6757C81.7969 36.6757 82.2502 36.5838 82.9644 36.5838C84.3802 36.5838 86.8313 36.9386 88.8451 39.0112C91.5206 41.7614 90.4095 44.7548 90.4095 44.7548L91.1274 44.8943C91.5567 44.9859 91.982 45.0019 92.4232 45.0218C92.5196 45.0218 92.6156 45.0259 92.712 45.0259C96.599 45.0259 98.3358 40.9883 98.3358 40.9883C98.3358 40.9883 102.468 46.0382 96.3865 49.992C95.3394 50.6697 94.8783 51.2955 94.9985 51.9651L95.0947 52.4036L95.5279 52.4793C99.9365 53.6669 102.167 56.6884 104.891 60.1242C109.026 65.3496 114.879 65.5169 115.601 65.5169H115.678C115.678 65.5169 114.342 69.7059 110.406 69.7059C110.342 69.7059 110.286 69.7059 110.218 69.702C108.409 69.6382 107.482 68.9486 107.482 68.9486C107.482 68.9486 106.772 78.4626 113.916 81.4124Z" fill="black"/>
<path id="Vector_27" d="M101.922 51.9926C103.723 52.9453 104.77 54.2207 105.688 55.3526C106.591 56.4567 107.449 57.5208 108.789 57.9632C109.266 58.1268 109.772 58.2025 110.285 58.2025C112.299 58.2025 114.321 56.9787 115.087 55.2848L115.857 53.587L113.992 53.4752C113.904 53.4713 111.505 53.2561 108.833 50.5418C107.734 49.4298 106.406 48.8438 104.974 48.8438C103.225 48.8438 101.93 49.7128 101.785 49.8003L100.068 51.0002L101.922 51.9926ZM104.978 50.1272C105.877 50.1272 106.924 50.4303 107.915 51.4465C111.023 54.5835 113.916 54.7587 113.916 54.7587C113.39 55.9146 111.866 56.931 110.289 56.931C109.924 56.931 109.559 56.8751 109.194 56.7515C107.056 56.034 106.29 52.8454 102.531 50.8606C102.531 50.8606 103.582 50.1272 104.978 50.1272Z" fill="black"/>
<path id="Vector_28" d="M102.764 68.9303V68.994C101.681 60.3129 95.3351 54.0433 88.2751 50.2288C87.621 49.882 87.0193 49.5872 86.4338 49.3042C88.5839 49.6349 92.0456 49.6749 94.7173 47.3711C94.7173 47.3711 90.6296 50.3605 82.2539 47.6462C84.5724 49.1407 89.0772 51.2494 93.1891 54.665C103.47 63.6413 96.1132 72.398 96.1132 72.398C99.8078 68.5675 99.9602 64.4622 98.8731 61.1102C100.819 64.3266 102.062 68.2327 101.869 73.0477C101.585 79.9471 97.77 85.9138 93.7545 90.7087C91.8251 93.0363 91.3919 95.8943 91.3919 95.8943C91.3919 95.8943 92.17 93.3711 94.4043 90.7765C98.7087 85.7704 102.387 80.5688 102.869 73.0755C103.314 74.4348 105.147 78.2173 108.055 79.6403C108.063 79.6442 104.409 77.4559 102.764 68.9303Z" fill="black"/>
<path id="Vector_29" d="M47.9723 101.05C47.9682 101.038 47.2222 99.8784 46.9816 96.7416C46.7006 92.9829 45.2725 90.7909 43.8606 89.5315C44.2698 89.3401 44.6468 89.105 44.9637 88.814C47.0378 86.9604 46.9495 84.7802 46.9375 84.5453L46.8572 83.3694L45.6698 83.3495C42.5047 83.2977 40.2945 82.3569 38.5012 80.2963C38.0842 79.81 37.7472 79.3276 37.4743 78.8534C38.4612 79.1524 39.6687 79.3756 41.1007 79.3756C41.4858 79.3756 41.8829 79.3516 42.3041 79.3238C44.5305 79.1323 46.039 77.8171 46.2073 77.6695L47.4388 76.5455L46.0309 75.6449C42.8819 73.644 39.6646 69.8494 42.1356 63.201C43.7363 58.8766 47.4388 54.9587 53.4559 51.2039C55.4856 49.9285 56.597 48.4297 56.597 46.9947C56.597 44.7788 54.7355 43.906 53.3678 43.2841C52.7019 42.9692 52.0079 42.6543 51.6707 42.2679C50.6118 41.052 51.5064 38.7165 52.4853 37.4529L53.7448 35.8148L51.707 35.4162C51.6469 35.4082 51.1134 35.3086 50.2949 35.3086C48.7707 35.3086 45.8663 35.6752 43.4915 38.1185C41.514 40.1514 41.2531 42.3156 41.3536 43.7107C41.1608 43.7265 40.9685 43.7344 40.7679 43.7466H40.5513C37.5748 43.7466 36.1668 40.6137 36.1107 40.4901L35.2723 38.5331L33.9162 40.1831C33.8401 40.2827 31.8585 42.7381 32.3397 45.8112C32.6608 47.8559 33.9524 49.6176 36.1708 51.0683C36.4114 51.2197 36.5799 51.3554 36.7003 51.463C32.5242 52.8143 30.1898 55.7796 27.7225 58.8965L27.3656 59.3389C23.5949 64.1059 18.2598 64.2455 17.622 64.2455L15.8047 64.1897L16.3583 65.9075C16.4224 66.1148 18.031 70.9933 22.8608 70.9933L23.0935 70.9853C23.603 70.9695 24.0602 70.9017 24.4695 70.8221C24.2689 73.4804 23.2861 78.3951 18.8453 80.2285L17.4896 80.7866L18.2237 82.0539C18.2958 82.1695 19.9406 84.9317 23.6711 84.9317C25.2996 84.9278 26.5672 84.5212 27.518 84.0312C27.6624 85.2348 27.9592 86.7811 28.541 88.5069C29.8928 92.5007 28.6334 95.2988 28.5851 95.4105L27.9194 96.8055L29.4275 97.2039C29.5278 97.228 30.4545 97.4591 31.5496 97.4591C32.063 97.4591 32.5364 97.4034 32.9617 97.3037C34.1048 97.0366 34.9873 96.5345 35.6574 95.9605C36.0663 97.212 36.7685 98.623 37.9839 99.8747C40.0538 101.987 43.0303 103.055 46.9213 103.055L49.2802 103.023L47.9723 101.05ZM46.833 101.78C36.1185 101.78 36.3915 92.6483 36.3915 92.6483C36.3915 92.6483 35.6452 95.3506 32.6566 96.0563C32.2997 96.1516 31.9186 96.1875 31.5457 96.1875C30.5828 96.1875 29.7525 95.9644 29.7525 95.9644C29.7525 95.9644 31.309 92.6842 29.7564 88.0965C28.4728 84.2901 28.6813 81.468 28.6813 81.468C28.6813 81.468 27.2413 83.6364 23.6591 83.6562H23.6231C20.6424 83.6562 19.3427 81.4122 19.3427 81.4122C26.4831 78.4668 25.7811 68.9565 25.7811 68.9565C25.7811 68.9565 24.8546 69.6423 23.0413 69.7099C22.9772 69.714 22.9169 69.714 22.8529 69.714C18.9136 69.714 17.5818 65.525 17.5818 65.525H17.6619C18.3881 65.525 24.2328 65.3575 28.3686 60.1321C31.0922 56.6963 33.3267 53.679 37.7273 52.4874L38.1686 52.4117L38.2646 51.9732C38.3852 51.3036 37.9277 50.6778 36.8808 50.0003C30.7993 46.0423 34.9311 40.9963 34.9311 40.9963C34.9311 40.9963 36.6601 45.0299 40.5554 45.0299C40.6514 45.0299 40.7397 45.0259 40.84 45.0259C41.2773 45.0019 41.7107 44.9861 42.1356 44.8943L42.8538 44.7548C42.8538 44.7548 41.7426 41.7614 44.4223 39.0114C46.4361 36.9347 48.887 36.584 50.2989 36.584C51.017 36.584 51.4624 36.6756 51.4624 36.6756C50.1225 38.4214 49.1519 41.3151 50.7001 43.1009C52.0399 44.6353 55.3092 44.711 55.3092 46.9989C55.3092 47.9674 54.3987 49.0993 52.762 50.1158C47.8399 53.197 42.9541 57.2863 40.9241 62.7587C38.3891 69.5905 41.2493 74.1222 45.337 76.725C45.337 76.725 44.0532 77.8969 42.1959 78.0443C41.8189 78.0802 41.4539 78.0959 41.1007 78.0959C37.1855 78.0959 35.1599 76.2706 35.1599 76.2706C35.1599 76.2706 35.4968 78.7935 37.5225 81.1373C39.4161 83.3014 41.8829 84.577 45.6539 84.6288C45.6539 84.6288 45.7741 86.3665 44.1054 87.8693C43.0343 88.8179 40.5714 89.1287 40.5714 89.1287C40.5714 89.1287 45.1925 90.0574 45.6978 96.8333C45.9747 100.504 46.9093 101.78 46.9093 101.78H46.833Z" fill="black"/>
<path id="Vector_30" d="M22.9681 58.2063C23.4854 58.2063 23.9909 58.1307 24.4684 57.9671C25.8161 57.5247 26.6706 56.4604 27.5732 55.3565C28.4958 54.2246 29.5348 52.949 31.3359 51.9964L33.189 51.0078L31.4683 49.8083C31.3239 49.7166 30.0322 48.8516 28.2872 48.8516C26.8511 48.8516 25.5195 49.4337 24.4241 50.5496C21.7527 53.26 19.3579 53.4793 19.2694 53.4832L17.4043 53.5906L18.1704 55.2926C18.9405 56.9787 20.9582 58.2063 22.9681 58.2063ZM25.3429 51.4504C26.3377 50.4341 27.3846 50.1311 28.2872 50.1311C29.6751 50.1311 30.7263 50.8643 30.7263 50.8643C26.9713 52.8534 26.2012 56.0379 24.0551 56.7556C23.7022 56.879 23.333 56.9349 22.9681 56.9349C21.3916 56.9349 19.8672 55.9224 19.3457 54.7625C19.3457 54.7586 22.2339 54.5832 25.3429 51.4504Z" fill="black"/>
<path id="Vector_31" d="M31.3889 73.0516C31.1881 68.2366 32.4319 64.3305 34.3812 61.1141C33.2943 64.4661 33.4427 68.5714 37.1413 72.4019C37.1413 72.4019 29.7843 63.6452 40.0695 54.6689C44.1853 51.2533 48.6861 49.1446 51.0006 47.6501C42.629 50.3644 38.5414 47.375 38.5414 47.375C41.2128 49.6788 44.6747 49.6388 46.8248 49.304C46.2433 49.587 45.6335 49.8822 44.9875 50.2288C37.9194 54.0433 31.5773 60.3131 30.4904 68.9939V68.9261C28.8495 77.4519 25.1992 79.64 25.1992 79.64C28.1036 78.2171 29.9327 74.4387 30.3781 73.0754C30.8633 80.5688 34.5418 85.7701 38.846 90.7764C41.0803 93.3713 41.8667 95.894 41.8667 95.894C41.8667 95.894 41.4294 93.0365 39.4919 90.7086C35.4844 85.9217 31.6696 79.951 31.3889 73.0516Z" fill="black"/>
<path id="Vector_32" d="M64.2109 55.4844V57.2063C64.8089 56.4846 65.9642 56.6322 65.9642 56.6322V59.1154C65.9642 59.1154 65.924 60.335 65.4868 60.8653H66.7381H67.9858C67.5566 60.3389 67.5124 59.1154 67.5124 59.1154V56.6322C67.5124 56.6322 68.6677 56.4846 69.2615 57.2063V55.4844H66.7381H64.2109Z" fill="black"/>
<path id="Vector_33" d="M63.1351 45.2736C63.9333 45.9034 64.3947 46.0071 64.4106 46.0189L64.7236 46.1624V44.5402L61.7871 43.3125C61.7871 43.3166 61.8153 44.2533 63.1351 45.2736Z" fill="black"/>
<path id="Vector_34" d="M70.1197 45.2736C71.4476 44.2533 71.4715 43.3125 71.4715 43.3125L68.5352 44.5402V46.1624L68.8442 46.0189C68.8643 46.0071 69.3215 45.9034 70.1197 45.2736Z" fill="black"/>
<path id="Vector_35" d="M75.41 38.6693C75.41 36.2102 71.242 33.998 66.641 33.998H66.637H66.625H66.6128C62.0117 33.998 57.8441 36.2102 57.8441 38.6693L57.9363 39.2753L59.7733 49.7539L57.9282 50.818L53.1546 53.5883H53.1705C53.1705 53.5883 52.0956 54.1343 51.5982 54.4731C49.7809 55.7287 49.3958 57.558 50.451 58.3155C50.7117 56.8246 51.899 55.2623 54.1214 55.2623C55.7219 55.2623 56.9415 56.0834 57.9282 57.315C58.1809 57.6258 58.4215 57.9567 58.6462 58.3155C58.9231 58.7658 59.1998 59.1603 59.4767 59.543H47.1816C48.0843 61.3485 48.9426 63.2617 48.9426 65.3385V92.3779C48.9426 98.9226 54.0091 102.048 59.4887 102.048C63.7248 102.048 64.2943 101.856 66.6329 104.168C68.9594 101.852 69.5292 102.048 73.7692 102.048C79.2529 102.048 84.3112 98.9226 84.3112 92.3779V65.3385C84.3112 63.2617 85.1699 61.3485 86.0762 59.543H73.7774C74.0502 59.1645 74.3269 58.7658 74.6038 58.3155C74.8322 57.9567 75.0689 57.6258 75.3178 57.315C76.3127 56.0793 77.5279 55.2623 79.1286 55.2623C81.3508 55.2623 82.5341 56.8206 82.799 58.3155C83.8539 57.558 83.473 55.7287 81.6437 54.4731C81.1543 54.1343 80.0793 53.5883 80.0793 53.5883H80.0952L75.3217 50.818L73.4846 49.7539L75.3217 39.2753L75.41 38.6693ZM59.6531 39.889L66.1116 42.0653V52.1454L61.358 49.6544L59.6531 39.889ZM60.9889 61.3008C62.0478 62.3489 63.087 62.9988 64.0738 63.3575C63.9453 63.8635 63.7768 64.9079 64.2541 65.9482C64.6434 66.7851 65.3493 67.4309 66.3643 67.8614C66.4766 68.8978 67.1344 70.4561 68.9594 71.1458C68.1612 71.9469 67.383 72.7 67.0663 73.007L59.6651 72.8916C59.4968 72.8076 59.2118 72.6204 59.0835 72.3534C59.0674 72.3175 59.0433 72.2976 59.0313 72.2576L60.2388 72.4529C60.267 72.4571 60.2908 72.4571 60.3151 72.4571C60.5476 72.4571 60.7522 72.2976 60.7924 72.0586C60.8326 71.7914 60.6521 71.5482 60.3913 71.5084L58.9071 71.2773L60.5557 65.6215L58.9952 62.357L56.4921 64.9875L56.3398 70.8707L54.6589 70.6077C54.3979 70.5558 54.1494 70.7472 54.1055 71.0063C54.0653 71.2652 54.2416 71.5084 54.5065 71.5563L55.2125 71.6639C54.9598 71.8073 54.7952 71.9189 54.7751 71.9348L54.6309 72.0346L54.5907 72.2099C54.1815 73.8599 55.1082 75.4265 56.107 76.1279L56.0708 76.3354C56.0309 76.5902 56.0869 76.8373 56.2393 77.0448C56.3837 77.256 56.6084 77.3835 56.8571 77.4273C56.9093 77.4353 56.9655 77.4393 57.0136 77.4393C57.4468 77.4393 57.824 77.1403 57.9322 76.706C58.3052 76.7496 58.6462 76.7577 58.8788 76.7577H59.0754L68.7872 78.4995L68.9515 78.3919C69.7259 77.8537 72.6742 75.7174 73.6409 75.0119C73.9057 75.2391 74.2025 75.4462 74.5636 75.6179C74.2506 76.6621 74.2305 78.2683 75.47 79.5358H50.7196V65.3422C50.7196 63.9672 50.3144 62.5842 49.8371 61.3088H60.9889V61.3008ZM72.9911 74.2863C72.0082 75.0038 69.4811 76.8373 68.5664 77.4752L59.7414 75.9008C59.7615 75.821 59.7814 75.7454 59.8015 75.6656C59.918 75.2113 60.0342 74.5894 60.0423 73.8599L67.4592 73.9797L67.5997 73.8361C67.7121 73.7245 70.0627 71.4686 71.2621 70.169C71.5469 70.5239 71.904 70.8628 72.3695 71.1616C72.2089 72.0227 72.2771 73.2502 72.9911 74.2863ZM58.217 72.768C58.4257 73.2023 58.8027 73.4934 59.0634 73.6567C59.0555 74.0633 59.0153 74.697 58.9071 75.2551C58.8829 75.3786 58.8508 75.4943 58.8147 75.6098C58.7946 75.6815 58.7747 75.7414 58.7585 75.7891C58.3695 75.7891 57.6032 75.7414 56.9775 75.5142C56.2836 75.259 55.2485 73.9955 55.4892 72.6044C55.7901 72.4212 56.484 72.0346 57.1338 72.0346C57.6354 72.0306 57.9763 72.2657 58.217 72.768ZM57.2984 71.0181L57.4468 65.3702L58.7225 64.0271L59.5248 65.6932L57.9442 71.1137L57.2984 71.0181ZM72.9109 100.298C72.4294 100.298 71.9844 100.306 71.5829 100.322L72.634 97.0734C72.7985 96.623 71.968 96.045 71.6273 95.5387C72.1446 95.8617 73.4846 96.567 74.1304 96.8502C74.062 96.9538 72.9109 100.298 72.9109 100.298ZM76.2082 96.607L75.5224 100.162C75.0849 100.222 74.6197 100.254 74.1424 100.274L74.8645 96.8541C75.0811 95.8377 72.3332 95.5228 70.9773 93.526C70.3155 94.2673 69.068 94.4865 67.8163 94.4865C66.6731 94.4865 65.53 94.3032 64.8357 94.1676C64.6593 94.1398 64.4908 94.1199 64.3264 94.1199C63.9252 94.1199 63.5602 94.2435 63.3075 94.666L63.1069 95.0006L59.3644 94.1237L58.4335 95.6544C58.3013 95.9015 58.2932 96.1128 58.5059 96.3439L58.7585 96.6188C58.5861 97.1609 57.808 97.9781 57.808 97.9781L57.2503 97.2886C56.809 96.7982 56.8811 95.9057 57.3425 95.0765L58.8267 92.5854L61.9958 93.0397L61.5023 91.9237C60.8405 90.4489 61.8474 88.5715 61.9556 87.4915C61.9195 87.8182 61.6188 87.8901 61.2656 87.8901C60.9449 87.8901 60.5878 87.8304 60.3511 87.8304C60.2589 87.8304 60.1785 87.8383 60.1345 87.87L59.2761 88.3883L58.5979 87.7945C58.5179 87.6789 58.4897 87.4116 58.6903 87.2124L60.2589 85.4667L58.4056 83.3183L61.0009 84.6138L61.7912 83.661C62.0078 83.8725 61.9156 84.4264 61.9156 84.4264C62.7258 84.4463 64.9963 85.6939 65.1167 88.6035C65.1248 88.6911 65.1248 88.7909 65.1248 88.8864C65.1248 88.8864 65.1449 88.9223 65.1847 88.9822C65.3453 89.2015 65.7866 89.7633 66.3481 89.8152L69.9344 90.1661H69.9503C70.3435 90.1661 71.1257 89.7076 72.1287 89.7076C72.6742 89.7076 73.2839 89.8471 73.9337 90.2536C73.9337 90.2536 74.2587 89.9986 74.7883 89.9705C74.8285 89.9667 74.8724 89.9667 74.9126 89.9667C76.5212 89.9667 77.1871 91.4096 78.0495 92.6091C78.6993 93.5219 79.5657 94.8772 79.5657 94.8772C79.245 95.2558 78.948 95.4631 78.4506 95.4631C78.3142 95.4631 78.1577 95.4511 77.9892 95.4193C76.2644 95.1042 76.0157 91.5808 75.0328 91.302C74.9808 91.286 74.9246 91.2821 74.8765 91.2821C74.5594 91.2821 74.4191 91.5609 74.4191 91.5609C74.8683 92.7608 74.6077 93.247 75.089 94.1718C75.4502 94.8571 76.0919 95.4233 76.3566 95.6903C76.3566 95.6982 76.2845 96.2164 76.2082 96.607ZM56.9493 93.243L57.1137 93.6535C57.0055 94.0123 55.7619 94.5223 55.7619 94.5223L55.4933 93.9406C55.2083 93.3189 55.2686 92.2703 56.1352 91.6287L58.1488 90.4091L60.283 90.8596C60.2427 91.5331 60.6479 92.0354 60.6479 92.0354L58.4095 91.6088L57.0698 92.5295C56.8451 92.6849 56.8291 92.976 56.9493 93.243ZM76.5452 99.9671L77.1589 96.7863C77.1911 96.5991 77.2311 96.3798 77.2592 96.1965C77.4319 96.2683 77.6162 96.328 77.817 96.3638C78.0454 96.4076 78.2581 96.4277 78.4506 96.4277C79.3893 96.4277 79.9348 95.9374 80.2998 95.5188L80.7732 94.9728L80.3881 94.3749C80.352 94.3152 79.5016 92.976 78.8438 92.0591C78.7155 91.8798 78.5909 91.7004 78.4666 91.5052C77.7206 90.3973 76.7859 89.0062 74.9126 89.0062L74.7441 89.01C74.4353 89.0299 74.1704 89.0898 73.9578 89.1694C73.3681 88.8945 72.7625 88.755 72.1328 88.755C71.3585 88.755 70.7046 88.9662 70.2714 89.1138C70.147 89.1497 70.0347 89.1893 69.9464 89.2053L66.4445 88.8626C66.4003 88.8545 66.2559 88.771 66.0834 88.5637V88.5477L66.8416 88.2448C66.6291 85.7376 64.206 84.1953 62.8541 83.673C62.7941 83.422 62.6737 83.1709 62.4611 82.9676L61.7069 82.2582L61.0451 83.0474L60.7203 83.4498L55.8181 81.449L59.0072 85.4267L57.7477 87.32C57.2863 87.8064 57.7958 88.2927 57.7958 88.2927L59.0953 89.1814L60.4434 88.6833C60.4915 88.6833 60.5317 88.6951 60.5758 88.6992C60.5116 88.9024 60.4274 89.6997 60.3712 89.9228L58.0325 89.4644L55.5733 90.8436C54.3098 91.7643 54.1374 93.2907 54.6066 94.3351L54.8794 94.9289L55.2686 95.766L56.1269 95.4113C56.1391 95.4071 56.1512 95.4034 56.159 95.3953C55.8502 96.3759 55.9748 97.3085 56.5282 97.9222L57.0497 98.576L57.7436 99.449L58.5059 98.6357C58.7304 98.4127 59.4566 97.6033 59.6811 96.9099L59.8458 96.3798L59.4726 95.9733L59.4124 95.9015L59.8295 95.216L62.8822 95.9293L63.5681 96.0848L63.9333 95.4869L64.1339 95.16C64.17 95.0924 64.182 95.0804 64.3223 95.0804C64.4307 95.0804 64.5391 95.0924 64.6554 95.1165C65.8065 95.3316 66.8696 95.4392 67.8124 95.4392C68.7269 95.4392 69.2724 95.4034 69.9265 95.1882C69.9265 95.1882 71.567 97.0374 71.6231 97.1093L70.6204 100.186L70.5761 100.374C68.6748 100.525 67.7482 100.94 66.6291 102.052C65.0042 100.449 63.8531 100.282 59.4846 100.282C54.2576 100.282 50.7155 97.2368 50.7155 92.3742V80.4844H82.5341L82.5424 92.3742C82.5463 96.3199 80.2156 99.0702 76.5452 99.9671ZM83.4249 61.3008C82.9393 62.5763 82.5341 63.9593 82.5341 65.3344L82.5382 74.2067C80.6731 73.8958 80.4523 71.899 80.4443 71.8113L80.4082 71.4048L80.0071 71.3689C79.1967 71.293 78.6593 70.9505 78.2058 70.5119C77.2914 69.603 77.2872 68.1285 77.2914 68.1166C77.2794 68.1921 76.2845 69.5753 77.4398 71.0859C77.9252 71.7236 78.627 72.1142 79.5377 72.2698C79.7503 73.3777 80.5806 74.9402 82.5382 75.1792V79.524H77.0346C74.4954 78.1207 75.5705 75.6496 75.6225 75.5461L75.8391 75.0756L75.3539 74.8925C72.606 73.8798 73.3602 71.1537 73.4002 71.0382L73.5126 70.6396L73.1397 70.4642C70.8689 69.42 71.1779 66.602 71.2059 66.4862C70.5081 67.0484 70.2554 68.1962 70.7367 69.3203C70.4759 69.6153 70.1269 69.9737 69.746 70.3645C67.3952 69.7705 67.323 67.6222 67.323 67.5227L67.3189 67.1918L67.0101 67.0722C66.0915 66.7333 65.4616 66.2272 65.1528 65.5456C64.8038 64.7923 64.9281 64.003 65.0243 63.6245C65.2931 63.6842 65.5619 63.7281 65.8187 63.748C66.0834 63.7758 66.3562 63.7918 66.6291 63.7918H66.6451H66.6652C66.938 63.7918 67.2066 63.7758 67.4714 63.748C68.9356 63.6046 70.5761 62.9787 72.2849 61.2966H83.4249V61.3008ZM74.8484 52.3326L77.0226 53.5883H77.0547L77.6002 53.9032C76.3726 54.2419 75.4339 54.8518 74.6477 55.6529C74.6198 55.6769 74.5916 55.7086 74.5636 55.7366C74.3831 55.928 74.2025 56.1353 74.034 56.3463C74.0021 56.3863 73.9698 56.4301 73.9337 56.474C73.7652 56.6892 73.6089 56.9085 73.4564 57.1397C73.4323 57.1795 73.4042 57.2193 73.3762 57.2551C73.1958 57.5222 73.0232 57.8093 72.8506 58.1041C71.3023 60.7547 68.8311 62.3371 66.6329 62.341C64.4388 62.3371 61.9678 60.7547 60.4193 58.1041C60.2506 57.8174 60.0823 57.5381 59.9018 57.267C59.8655 57.2153 59.8336 57.1635 59.8015 57.1198C59.6491 56.9004 59.4968 56.6853 59.3401 56.4819C59.3001 56.4261 59.264 56.3824 59.2238 56.3345C59.0555 56.1311 58.8829 55.928 58.7102 55.7406C58.6742 55.7128 58.6503 55.6769 58.6143 55.6448C57.824 54.8437 56.8892 54.2378 55.6577 53.9032L56.2113 53.5883H56.2353L58.4095 52.3326L60.644 51.0614L66.6128 54.2896L66.625 54.2778L66.641 54.2896L72.6099 51.0614L74.8484 52.3326ZM71.904 49.6581L67.1463 52.1492V42.0653L73.6006 39.889L71.904 49.6581ZM66.6291 40.9573L59.5528 38.1791C60.1546 36.7641 62.9303 35.5604 66.6291 35.5565C70.3315 35.5604 73.1074 36.7641 73.7051 38.1791L66.6291 40.9573Z" fill="black"/>
</g>
</g>
</svg>
