<svg width="88" height="12" viewBox="0 0 88 12" fill="none" xmlns="http://www.w3.org/2000/svg">
<path id="Vector" d="M8.29719 11.5638V3.45351H13.0985V0.502357H0V3.45351H4.80114V11.5638H8.29719ZM17.9936 0.502357H14.4976V11.5638H17.9936V0.502357ZM20.552 0.502357V11.5638H23.7683V5.45207L29.7581 11.5638H32.7415V0.502357H29.5251V6.56746L23.6751 0.502357H20.552ZM39.6127 7.38082L43.6447 11.5638H48.1429L42.526 5.80073L47.9333 0.502357H43.6913L39.6127 4.66189H38.6803V0.502357H35.3008V11.5638H38.6803V7.38082H39.6127ZM55.0967 0.200195C50.5519 0.200195 47.825 2.75632 47.825 6.05626C47.825 9.35607 50.5519 11.9122 55.0967 11.9122C59.6183 11.9122 62.3452 9.35607 62.3452 6.05626C62.3452 2.75632 59.6183 0.200195 55.0967 0.200195ZM55.0967 9.21659C52.8361 9.21659 51.391 7.86884 51.391 6.05626C51.391 4.24368 52.8361 2.91912 55.0967 2.91912C57.3342 2.91912 58.8025 4.24368 58.8025 6.05626C58.8025 7.86884 57.3342 9.21659 55.0967 9.21659ZM75.1616 0.502357H63.9511V11.5638H67.3305V7.70617H74.6722V5.26608H67.3305V3.31402H75.1616V0.502357ZM87.8849 0.502357H76.6742V11.5638H80.0538V7.70617H87.3954V5.26608H80.0538V3.31402H87.8849V0.502357Z" fill="black"/>
</svg>
