<svg width="88" height="91" viewBox="0 0 88 91" fill="none" xmlns="http://www.w3.org/2000/svg">
<g id="d6400f9d-63bb-4076-b887-7aa967baf8a9 1">
<path id="Vector" d="M78.0087 28.9339L78.9161 26.0555L75.9142 26.1487C75.6606 26.1487 73.8171 26.0968 72.0286 24.8118C72.1619 24.8248 72.2951 24.843 72.4312 24.843C74.272 24.843 76.0528 23.7444 76.7666 22.1745L78.0583 19.3376C76.4397 19.3582 74.9598 19.1561 74.9598 19.1561C74.9467 19.1537 73.7805 19.0059 72.4312 17.6406C71.4637 16.6613 70.2661 16.1432 68.9691 16.1432C68.4017 16.1432 67.8945 16.2442 67.4577 16.3815C67.5257 16.1509 67.591 15.9178 67.6277 15.6768C68.0408 13.0213 66.3151 10.9954 66.3151 10.9979L64.0583 8.22836L62.6596 11.4823C62.6543 11.4927 62.3012 12.2544 61.6685 12.6275C61.4776 11.6715 61.0094 10.5963 60.008 9.56783C58.1201 7.62988 55.8215 7.34231 54.6188 7.34231C54.0619 7.34231 53.6644 7.40185 53.5676 7.41744L50.8429 7.9485C50.9999 7.34484 51.3346 6.29561 51.9464 5.35002L53.45 3.02872L49.6662 3.45617L48.4607 0.919753L46.1283 2.1115L43.9711 0L41.8191 2.1115L39.4787 0.919753L38.2759 3.45617L34.4948 3.02872L36.001 5.35002C36.6129 6.29561 36.9475 7.34231 37.1018 7.94598L34.5028 7.43821L34.4138 7.42262C34.283 7.40185 33.8882 7.34231 33.3286 7.34231C32.1259 7.34231 29.8274 7.63242 27.9445 9.56783C26.9404 10.5937 26.4724 11.6715 26.279 12.6275C25.6514 12.2596 25.3009 11.5083 25.3009 11.5083L23.8995 8.23609L21.6061 11.0237C21.3264 11.3839 19.9432 13.2881 20.3196 15.682C20.3589 15.9203 20.4218 16.1536 20.4897 16.3842C20.0556 16.2468 19.5483 16.1457 18.9809 16.1457C17.684 16.1457 16.4863 16.6639 15.5162 17.6431C14.1721 19.0034 13.0111 19.1561 13.0217 19.1561C13.0217 19.1561 11.7952 19.3739 9.89682 19.3402L11.1808 22.1771C11.8946 23.7496 13.678 24.8455 15.5162 24.8455C15.6547 24.8455 15.7881 24.8275 15.9241 24.8144C14.1407 26.0995 12.2974 26.1514 12.0751 26.1538L9.01562 26.0555L9.94129 28.9313C10.4067 30.4131 11.9626 32.8692 14.9435 33.1335C14.6193 34.4807 13.9003 35.9886 12.3209 36.6387L10.0434 37.5688L11.2854 39.7113C11.9861 40.8668 13.631 42.2193 15.9738 42.2193C16.481 42.2167 16.97 42.1674 17.4408 42.069C17.5611 42.5975 17.7126 43.126 17.8904 43.6494C18.5887 45.7065 17.9872 47.1417 17.9795 47.1573L16.855 49.4915L19.3652 50.1469C19.3966 50.1574 20.1549 50.3621 21.104 50.3621C21.5356 50.3621 21.9462 50.3181 22.3332 50.2272C22.626 50.16 22.9058 50.0693 23.1751 49.9606C23.4993 50.5382 23.8942 51.0642 24.3545 51.5358C25.9625 53.1705 28.2401 53.9996 31.1269 53.9996H31.1373L33.1979 53.9736L28.9409 55.7249L32.1729 57.2716C33.3468 57.8391 34.7407 58.5101 36.1578 59.0229L35.7552 60.1163L36.8692 60.619C36.9685 60.663 39.11 61.6138 42.6715 61.8159C42.6715 61.8159 43.5317 61.8547 44.0051 61.8547C44.4784 61.8547 45.3282 61.8132 45.3282 61.8132C48.8661 61.606 50.9919 60.6655 51.0914 60.619L52.2079 60.1137L51.8 59.0178C53.2591 58.4893 54.7024 57.7925 55.8268 57.2483L58.9986 55.7224L54.7547 53.9684L56.8232 53.9943C59.7125 53.9943 61.9927 53.1653 63.5982 51.5278C64.0559 51.059 64.4507 50.533 64.7775 49.9553C65.0469 50.0642 65.3293 50.1549 65.6222 50.2221C66.0064 50.3128 66.417 50.3569 66.8485 50.3569C67.782 50.3569 68.5481 50.1522 68.5691 50.1469L71.0897 49.4864L69.9915 47.1962C69.9654 47.1365 69.364 45.7038 70.0621 43.6443C70.2399 43.1182 70.3889 42.5897 70.5093 42.0638C70.9826 42.1623 71.4768 42.214 71.9867 42.214C74.9702 42.214 76.4006 40.1338 76.6778 39.6829L77.9067 37.5637L75.6292 36.6362C74.0472 35.9859 73.3307 34.4755 73.0091 33.1308C75.9482 32.8822 77.5276 30.4261 78.0087 28.9339ZM37.3007 8.93819L37.2692 8.94604L37.2953 8.91234L37.3007 8.93819Z" fill="white"/>
<path id="Vector_2" d="M43.9741 8.81104C41.563 8.81356 39.7561 9.59599 39.3613 10.5157L43.9741 12.3189L48.5867 10.5157C48.1945 9.59599 46.3876 8.81356 43.9741 8.81104Z" fill="white"/>
<path id="Vector_3" d="M44.0226 56.5459H44.0175H43.9782H43.9338H43.9311C42.4694 56.5563 40.4585 56.2584 39.4884 55.9785L38.3223 59.1055C39.091 59.3776 41.6954 59.8958 43.9782 59.8958C46.2556 59.8958 48.8627 59.375 49.6289 59.1055L48.4654 55.9785C47.4925 56.2608 45.4843 56.5563 44.0226 56.5459Z" fill="white"/>
<path id="Vector_4" d="M52.8468 53.4375C51.9786 53.9246 50.0411 54.6552 48.9141 54.9947L49.8606 57.5776C51.6048 57.1061 53.043 56.5543 54.2326 55.9635L52.2689 55.3158L52.8468 53.4375Z" fill="white"/>
<path id="Vector_5" d="M35.1045 53.4375L35.6851 55.3158L33.7188 55.9635C34.9058 56.5543 36.3518 57.1061 38.088 57.5776L39.0347 54.9947C37.9129 54.6552 35.9727 53.9221 35.1045 53.4375Z" fill="white"/>
<path id="Vector_6" d="M43.9743 5.82131C45.7916 5.82131 47.5749 6.25142 48.9452 7.00801C49.0707 6.59081 49.2458 6.08558 49.484 5.55718L48.9661 5.61925L48.4222 5.67626L48.1921 5.18661L47.4993 3.73579L46.2362 4.38873L45.7445 4.63743L45.3523 4.25394L43.9795 2.90674L42.6094 4.25394L42.2171 4.63743L41.7254 4.38873L40.4548 3.73579L39.7697 5.18661L39.5343 5.67626L38.9904 5.61925L38.4727 5.55718C38.7107 6.08825 38.8832 6.59081 39.0113 7.00801C40.3841 6.25142 42.1622 5.82131 43.9743 5.82131Z" fill="white"/>
<path id="Vector_7" d="M71.7216 22.5896C71.9569 22.6699 72.1975 22.7062 72.4354 22.7062C73.4631 22.7062 74.4567 22.0481 74.7993 21.2941C74.7993 21.2941 72.9139 21.1801 70.8875 19.1412C70.2416 18.4806 69.5592 18.2837 68.9733 18.2837C68.0634 18.2837 67.3809 18.7603 67.3809 18.7603C69.8284 20.0507 70.3279 22.1233 71.7216 22.5896Z" fill="white"/>
<path id="Vector_8" d="M15.5155 22.7057C15.7534 22.7057 15.9941 22.6695 16.2241 22.5891C17.6232 22.1228 18.1252 20.0502 20.5726 18.7598C20.5726 18.7598 19.8875 18.2832 18.9827 18.2832C18.3945 18.2832 17.7119 18.4801 17.0636 19.1408C15.0396 21.1797 13.1543 21.2937 13.1543 21.2937C13.4915 22.0476 14.4878 22.7057 15.5155 22.7057Z" fill="white"/>
<path id="Vector_9" d="M72.3854 31.0114C72.4274 31.0138 72.464 31.0138 72.5083 31.0138C75.0735 31.0138 75.9443 28.291 75.9443 28.291H75.8946C75.4239 28.291 71.6088 28.1822 68.9129 24.7856C67.1373 22.5524 65.6836 20.5886 62.8098 19.8166L62.5274 19.7673L62.4646 19.4824C62.3862 19.047 62.6869 18.6404 63.3694 18.2C67.3335 15.6273 64.6429 12.3473 64.6429 12.3473C64.6429 12.3473 63.5107 14.9718 60.9767 14.9718C60.9167 14.9718 60.8513 14.9692 60.7885 14.9692C60.5009 14.9537 60.2236 14.9433 59.944 14.8838L59.4758 14.7931C59.4758 14.7931 60.1977 12.8474 58.4561 11.0597C57.1434 9.70997 55.5458 9.48193 54.6227 9.48193C54.1573 9.48193 53.8618 9.54161 53.8618 9.54161C54.7377 10.6763 55.3705 12.5573 54.3586 13.7178C53.4853 14.7154 51.3516 14.7645 51.3516 16.2516C51.3516 16.8812 51.9451 17.6171 53.012 18.2776C56.2203 20.2803 59.4053 22.9359 60.7284 26.4955C62.3837 30.9362 60.5192 33.8818 57.8573 35.5711C57.8573 35.5711 58.6915 36.3327 59.9021 36.4286C60.148 36.4519 60.3885 36.4623 60.6134 36.4623C63.1681 36.4623 64.4886 35.2757 64.4886 35.2757C64.4886 35.2757 64.2715 36.9156 62.9406 38.4391C61.7142 39.8457 60.1035 40.6723 57.6481 40.7085C57.6481 40.7085 57.5696 41.8382 58.6574 42.8148C59.353 43.4314 60.9612 43.6336 60.9612 43.6336C60.9612 43.6336 57.9514 44.2371 57.6193 48.6416C57.4388 51.0276 56.8244 51.8566 56.8244 51.8566H56.8792C63.8636 51.8566 63.6831 45.9212 63.6831 45.9212C63.6831 45.9212 64.1695 47.6777 66.1177 48.1363C66.3529 48.1985 66.604 48.2218 66.8446 48.2218C67.4721 48.2218 68.0161 48.0767 68.0161 48.0767C68.0161 48.0767 66.9962 45.9445 68.0081 42.9625C68.8475 40.4884 68.7115 38.654 68.7115 38.654C68.7115 38.654 69.653 40.0634 71.9854 40.0764H72.009C73.9518 40.0764 74.7989 38.6178 74.7989 38.6178C70.1419 36.7032 70.6021 30.5217 70.6021 30.5217C70.6021 30.5217 71.2062 30.9673 72.3854 31.0114ZM70.9838 37.4674C69.0907 36.5426 67.8931 34.0865 67.6028 33.2005C67.2892 38.0711 64.8887 41.4521 62.0829 44.7062C60.6265 46.3927 60.1191 48.0326 60.1191 48.0326C60.1191 48.0326 60.399 46.1751 61.6593 44.662C64.2769 41.5454 66.7634 37.667 66.9491 33.1823C67.0772 30.0526 66.264 27.5138 64.9958 25.423C65.7044 27.6018 65.6051 30.2704 63.1969 32.76C63.1969 32.76 67.9899 27.0682 61.2881 21.2338C58.6052 19.0134 55.6713 17.6429 54.16 16.6713C59.6197 18.4357 62.2842 16.4926 62.2842 16.4926C60.5402 17.9901 58.2835 17.9642 56.8846 17.7491C57.2637 17.9332 57.6585 18.1248 58.0848 18.3502C62.6869 20.827 66.8236 24.9022 67.5296 30.5476V30.5035C68.6017 36.0451 70.9838 37.4674 70.9838 37.4674Z" fill="white"/>
<path id="Vector_10" d="M26.9891 43.6336C26.9891 43.6336 28.5971 43.434 29.2928 42.8148C30.3778 41.8382 30.3021 40.7085 30.3021 40.7085C27.844 40.675 26.236 39.8457 25.0017 38.4416C23.6813 36.9183 23.4616 35.2783 23.4616 35.2783C23.4616 35.2783 24.782 36.4649 27.3342 36.4649C27.5644 36.4649 27.8023 36.4545 28.0481 36.4312C29.2587 36.3354 30.0954 35.5736 30.0954 35.5736C27.4336 33.8845 25.5666 30.9362 27.2192 26.4955C28.545 22.9385 31.7272 20.2803 34.9356 18.2776C36.0025 17.6171 36.596 16.8838 36.596 16.2516C36.596 14.7645 34.465 14.7154 33.5917 13.7178C32.5796 12.5573 33.215 10.6737 34.0883 9.54161C34.0883 9.54161 33.7981 9.48193 33.33 9.48193C32.4096 9.48193 30.8119 9.70997 29.4993 11.0597C27.7526 12.8474 28.4769 14.7931 28.4769 14.7931L28.0089 14.8838C27.7291 14.9433 27.4493 14.9537 27.1642 14.9692C27.0989 14.9692 27.0413 14.9718 26.9786 14.9718C24.4395 14.9718 23.3125 12.35 23.3125 12.35C23.3125 12.35 20.6218 15.6298 24.5834 18.2024C25.2658 18.6429 25.5639 19.0497 25.4855 19.485L25.4227 19.77L25.1351 19.8192C22.2666 20.5911 20.8102 22.5551 19.0347 24.7883C16.3439 28.1796 12.5341 28.291 12.0582 28.291H12.0059C12.0059 28.291 12.8766 31.0138 15.4418 31.0138C15.4836 31.0138 15.5202 31.0138 15.5646 31.0114C16.7441 30.9697 17.3507 30.5217 17.3507 30.5217C17.3507 30.5217 17.8056 36.7007 13.1538 38.6178C13.1538 38.6178 14.0011 40.0764 15.9439 40.0764H15.9674C18.3024 40.0634 19.2412 38.654 19.2412 38.654C19.2412 38.654 19.1052 40.4884 19.9419 42.9625C20.954 45.9445 19.9395 48.0767 19.9395 48.0767C19.9395 48.0767 20.4833 48.2218 21.1083 48.2218C21.3513 48.2218 21.5999 48.1985 21.8326 48.1363C23.7779 47.6777 24.267 45.9212 24.267 45.9212C24.267 45.9212 24.0891 51.8566 31.0735 51.8566H31.1232C31.1232 51.8566 30.5113 51.0276 30.3335 48.6416C29.9987 44.2371 26.9891 43.6336 26.9891 43.6336ZM25.8673 44.7062C23.0615 41.4521 20.6638 38.0711 20.3472 33.2005C20.0571 34.0838 18.8646 36.5426 16.9716 37.4674C16.9716 37.4674 19.3511 36.0451 20.4204 30.5035V30.5476C21.1292 24.9049 25.2633 20.827 29.868 18.3502C30.289 18.1221 30.6889 17.9305 31.0656 17.7491C29.6666 17.9642 27.4101 17.9901 25.666 16.4926C25.666 16.4926 28.3306 18.4357 33.7876 16.6713C32.2763 17.6429 29.3451 19.0134 26.6621 21.2338C19.9577 27.0682 24.7534 32.76 24.7534 32.76C22.3424 30.2677 22.2457 27.6018 22.9543 25.423C21.6835 27.5162 20.8728 30.0526 21.0037 33.1823C21.1866 37.667 23.6734 41.5454 26.2857 44.662C27.5486 46.1725 27.8336 48.0326 27.8336 48.0326C27.8336 48.0326 27.3211 46.3927 25.8673 44.7062Z" fill="white"/>
<path id="Vector_11" d="M38.8104 21.9337C38.9254 22.0554 39.0378 22.1875 39.1451 22.3197C39.1713 22.3509 39.1948 22.3793 39.2207 22.4155C39.3202 22.5477 39.4223 22.6876 39.5189 22.8302C39.5398 22.8586 39.5608 22.8923 39.5843 22.926C39.702 23.1021 39.8118 23.2835 39.9216 23.47C40.9284 25.193 42.5417 26.2214 43.9721 26.2241C45.405 26.2214 47.0132 25.193 48.0251 23.47C48.1375 23.2783 48.2499 23.0918 48.3676 22.9182C48.386 22.8923 48.4042 22.869 48.4199 22.843C48.5193 22.6954 48.6239 22.5503 48.7337 22.4104C48.7572 22.3793 48.7782 22.3534 48.799 22.3275C48.9115 22.1902 49.0265 22.0554 49.1442 21.9311C49.1652 21.9104 49.1808 21.8923 49.1992 21.8767C49.7116 21.356 50.3236 20.9596 51.1237 20.7394L50.7681 20.5347H50.7471L49.3299 19.7185L47.8735 18.8921L43.9825 20.9906L43.9721 20.9829L43.9642 20.9906L40.0707 18.8921L38.6168 19.716L37.197 20.5321H37.1813L36.8203 20.7367C37.6231 20.957 38.2324 21.3482 38.7476 21.869C38.7711 21.8897 38.7868 21.9131 38.8104 21.9337ZM42.398 21.7652H44.0453H45.6899V22.8845C45.303 22.4155 44.5499 22.5115 44.5499 22.5115V24.1255C44.5499 24.1255 44.5787 24.9183 44.8585 25.2629H44.0453H43.2294C43.5144 24.9208 43.5406 24.1255 43.5406 24.1255V22.5115C43.5406 22.5115 42.7902 22.4155 42.398 22.8845V21.7652Z" fill="white"/>
<path id="Vector_12" d="M43.6377 19.5941V13.0421L39.4277 11.6274L40.5391 17.9776L43.6377 19.5941ZM42.7329 14.651V15.7027L42.5291 15.6095C42.5185 15.6018 42.2204 15.5343 41.6975 15.1251C40.8344 14.4618 40.8189 13.8505 40.8189 13.8505L42.7329 14.651Z" fill="white"/>
<path id="Vector_13" d="M47.4136 17.9776L48.5198 11.6274L44.3125 13.0421V19.5941L47.4136 17.9776ZM45.2172 14.651L47.1312 13.853C47.1312 13.853 47.1155 14.4644 46.25 15.1276C45.7296 15.537 45.4289 15.6042 45.4185 15.6122L45.2145 15.7054V14.651H45.2172Z" fill="white"/>
<path id="Vector_14" d="M37.684 34.7841C38.0945 34.9318 38.5914 34.9631 38.8451 34.9631C38.8555 34.9318 38.8686 34.893 38.8817 34.8464C38.9052 34.7712 38.926 34.6987 38.9418 34.6158C39.0124 34.2531 39.0386 33.8411 39.0437 33.5769C38.8712 33.4706 38.628 33.2815 38.4919 32.9991C38.3351 32.6727 38.1128 32.5225 37.7859 32.5225C37.3625 32.5225 36.9074 32.7738 36.714 32.8929C36.5597 33.7971 37.2317 34.6184 37.684 34.7841Z" fill="white"/>
<path id="Vector_15" d="M46.9963 31.3066C46.2144 32.1486 44.6848 33.615 44.6088 33.6901L44.5174 33.7834L39.6825 33.7082C39.6798 34.1825 39.6014 34.5866 39.5255 34.8818C39.5125 34.9312 39.4994 34.983 39.4863 35.0348L45.239 36.0582C45.8379 35.6435 47.4852 34.4517 48.1232 33.9855C47.6577 33.3119 47.6134 32.514 47.718 31.9517C47.4146 31.7574 47.1819 31.5399 46.9963 31.3066Z" fill="white"/>
<path id="Vector_16" d="M47.6505 25.5453C46.5366 26.6413 45.4671 27.0455 44.5127 27.1387C44.3402 27.1568 44.165 27.1671 43.9872 27.1671H43.9741H43.9635C43.7857 27.1671 43.6079 27.1568 43.4354 27.1387C43.268 27.1232 43.0929 27.0972 42.9175 27.0584C42.8548 27.3046 42.7764 27.8201 43.0014 28.3071C43.2027 28.7502 43.6132 29.0791 44.212 29.2969L44.4133 29.3746L44.416 29.5895C44.416 29.6544 44.463 31.0481 45.9979 31.4341C46.249 31.1777 46.4765 30.9471 46.6439 30.7555C46.33 30.0249 46.4947 29.2787 46.9497 28.9135C46.9288 28.9911 46.7302 30.8202 48.2101 31.499L48.4532 31.6131L48.3801 31.8694C48.3566 31.9473 47.8624 33.7167 49.6535 34.3747L49.97 34.4939L49.8287 34.7997C49.7973 34.867 49.094 36.4733 50.749 37.3851H54.3393V34.5613C53.0634 34.4059 52.522 33.3902 52.3835 32.6699C51.7897 32.569 51.3297 32.3151 51.0159 31.9005C50.2628 30.9187 50.9113 30.0197 50.9191 29.9703C50.9164 29.9783 50.9191 30.9368 51.5152 31.5275C51.8108 31.8124 52.1611 32.0326 52.692 32.0819L52.9534 32.1052L52.977 32.3694C52.9823 32.4264 53.1261 33.7219 54.342 33.9265L54.3393 28.1596C54.3393 27.2656 54.6034 26.3666 54.9198 25.5376H47.6505V25.5453Z" fill="white"/>
<path id="Vector_17" d="M37.9893 28.1874L37.8926 31.8611L38.3136 31.9233L39.3437 28.3999L38.8208 27.3169L37.9893 28.1874Z" fill="white"/>
<path id="Vector_18" d="M49.3483 45.0354C49.3797 45.0354 49.4164 45.0406 49.4504 45.0484C50.0909 45.2297 50.2532 47.5198 51.3775 47.7246C51.4873 47.748 51.5893 47.7531 51.6782 47.7531C52.0024 47.7531 52.1959 47.6158 52.4052 47.3723C52.4052 47.3723 51.8403 46.4914 51.4167 45.8981C50.8544 45.1209 50.4179 44.1804 49.3718 44.1804C49.3483 44.1804 49.3169 44.1804 49.2909 44.183C48.9457 44.2012 48.7339 44.3671 48.7339 44.3671C48.3103 44.1027 47.9154 44.012 47.5572 44.012C46.9008 44.012 46.391 44.3099 46.1374 44.3099H46.1268L43.7891 44.0819C43.4231 44.0483 43.1355 43.6831 43.0309 43.5405C43.0047 43.5016 42.9916 43.4783 42.9916 43.4783C42.9916 43.4161 42.9916 43.3513 42.9865 43.2943C42.908 41.4005 41.428 40.5896 40.9023 40.5767C40.9023 40.5767 40.9652 40.2166 40.8214 40.0793L40.3062 40.6984L38.6143 39.8564L39.8197 41.2529L38.7974 42.3902C38.6693 42.5198 38.685 42.6959 38.7373 42.7684L39.1792 43.1545L39.7387 42.8176C39.7676 42.797 39.8173 42.7917 39.8799 42.7917C40.0341 42.7917 40.2669 42.8307 40.4761 42.8307C40.7036 42.8307 40.9023 42.7813 40.926 42.569C40.8553 43.271 40.199 44.4913 40.6305 45.4499L40.9495 46.1727L38.8837 45.8774L37.9162 47.4965C37.6182 48.0355 37.5709 48.6184 37.8586 48.9344L38.2196 49.3828C38.2196 49.3828 38.7269 48.849 38.8418 48.4993L38.6772 48.3205C38.5385 48.1701 38.5464 48.0355 38.6301 47.8723L39.2366 46.8748L41.6763 47.4448L41.8044 47.2273C41.9693 46.9551 42.2072 46.8722 42.4687 46.8722C42.5759 46.8722 42.6857 46.8852 42.8007 46.9033C43.2532 46.9915 43.9984 47.1106 44.7436 47.1106C45.5621 47.1106 46.3726 46.9655 46.8041 46.4863C47.6878 47.7842 49.4791 47.9915 49.3379 48.6496L48.8673 50.8724C49.1784 50.8595 49.4791 50.8387 49.7641 50.7998L50.2112 48.4863C50.2609 48.2351 50.3081 47.8956 50.3081 47.8956C50.1355 47.7221 49.7171 47.3542 49.4816 46.9085C49.1653 46.3075 49.3379 45.9939 49.0424 45.2116C49.0529 45.2167 49.1418 45.0354 49.3483 45.0354ZM40.2225 41.7865C40.1022 41.7839 40.0159 41.6829 40.0212 41.5637C40.0317 41.4497 40.1284 41.359 40.2461 41.3694C40.3664 41.3747 40.4526 41.4783 40.4474 41.5923C40.4369 41.7062 40.3376 41.7944 40.2225 41.7865Z" fill="white"/>
<path id="Vector_19" d="M36.8926 47.1387C36.8926 47.1387 37.7006 46.8096 37.7739 46.5738L37.6667 46.307C37.5908 46.1334 37.6013 45.9444 37.7478 45.8406L38.6211 45.2422L40.0802 45.5194C40.0802 45.5194 39.8161 45.193 39.8423 44.7551L38.4511 44.4624L37.1385 45.2551C36.5763 45.6723 36.5344 46.3536 36.7201 46.7577L36.8926 47.1387Z" fill="white"/>
<path id="Vector_20" d="M47.2051 50.9058C47.4665 50.8956 47.7541 50.8903 48.0707 50.8903C48.0707 50.8903 48.8211 48.7167 48.8629 48.6467C48.442 48.4628 47.5686 48.0042 47.2313 47.7944C47.4537 48.1234 47.9948 48.5017 47.8876 48.7919L47.2051 50.9058Z" fill="white"/>
<path id="Vector_21" d="M54.3492 38.0146H33.6055V45.7455C33.6055 48.9062 35.9144 50.8856 39.3216 50.8856C42.1692 50.8856 42.9196 50.9945 43.9787 52.036C44.7081 51.3157 45.3123 51.0463 46.5516 50.9452L46.5805 50.8262L47.2342 48.8234C47.1976 48.7793 46.1282 47.5746 46.1282 47.5746C45.7045 47.7145 45.3489 47.7378 44.7501 47.7378C44.1355 47.7378 43.4426 47.6679 42.6922 47.528C42.6163 47.51 42.5458 47.5047 42.4751 47.5047C42.3836 47.5047 42.3757 47.5125 42.3522 47.5566L42.2214 47.769L41.9835 48.1576L41.5364 48.0565L39.5464 47.5928L39.2746 48.0383L39.3163 48.0849L39.5595 48.3492L39.4524 48.6939C39.3059 49.1447 38.83 49.6705 38.6862 49.8157L38.1894 50.3442L37.737 49.7767L37.397 49.3546C37.0389 48.9581 36.9551 48.3492 37.1566 47.712C37.1512 47.7172 37.1435 47.7198 37.1356 47.7198L36.5734 47.9503L36.3197 47.4063L36.1419 47.0201C35.8359 46.3415 35.9485 45.3491 36.7721 44.7507L38.3751 43.8542L39.8996 44.1523C39.9362 44.0071 39.9911 43.489 40.0354 43.3568C40.0067 43.3544 39.978 43.3465 39.9492 43.3465L39.0706 43.6703L38.2234 43.09C38.2234 43.09 37.8914 42.774 38.1919 42.4579L39.013 41.2272L36.9343 38.6416L40.1295 39.9422L40.3414 39.6806L40.7729 39.1703L41.2619 39.6314C41.4005 39.7634 41.4788 39.9266 41.518 40.0898C42.3992 40.4292 43.9761 41.4319 44.1146 43.0616L43.6204 43.2585V43.2714C43.7329 43.4034 43.827 43.458 43.8559 43.463L46.1359 43.6859C46.1935 43.6755 46.2667 43.6496 46.3477 43.6263C46.6302 43.5304 47.0564 43.3931 47.5611 43.3931C47.9716 43.3931 48.369 43.4864 48.7507 43.6626C48.8919 43.6107 49.0646 43.5719 49.2633 43.5589L49.3731 43.5564C50.5942 43.5564 51.2008 44.4606 51.6874 45.1808C51.7684 45.305 51.8493 45.4243 51.9331 45.5409C52.3592 46.1367 52.9163 47.0099 52.9398 47.0462L53.1908 47.4346L52.8824 47.7897C52.6444 48.0616 52.2887 48.3804 51.6768 48.3804C51.5513 48.3804 51.4128 48.3674 51.2637 48.3389C51.1329 48.3155 51.0153 48.2768 50.9001 48.2302C50.8819 48.3492 50.8584 48.4918 50.8348 48.6136L50.4347 50.6809C52.8274 50.098 54.3466 48.3078 54.3466 45.7481L54.3492 38.0146Z" fill="#FFDD2D"/>
<path id="Vector_22" d="M33.6046 37.3927H49.7357C48.9302 36.5689 48.9407 35.5249 49.1473 34.846C48.9119 34.7346 48.7185 34.6 48.5459 34.4549C47.9157 34.916 45.9911 36.3046 45.4891 36.6518L45.3819 36.7243L39.0513 35.5896H38.9231C38.7715 35.5896 38.5493 35.5845 38.3061 35.5559C38.2381 35.8383 37.9922 36.0326 37.7099 36.0326C37.6785 36.0326 37.6419 36.0301 37.6079 36.0223C37.4432 35.9937 37.2993 35.9108 37.2025 35.7735C37.1032 35.6389 37.0641 35.4783 37.0928 35.3124L37.1164 35.1777C36.4626 34.7217 35.8612 33.7035 36.1279 32.6309L36.154 32.5169L36.2455 32.4522C36.2586 32.4418 36.3684 32.3693 36.5307 32.2759L36.0704 32.206C35.8978 32.175 35.7827 32.0168 35.8089 31.8485C35.8377 31.6775 35.9998 31.5557 36.1698 31.5894L37.2654 31.7605L37.3648 27.9364L38.9963 26.2265L40.0135 28.3484L38.9389 32.0273L39.9064 32.1776C40.0764 32.2034 40.194 32.3615 40.1678 32.5351C40.1417 32.688 40.011 32.7941 39.8567 32.7941C39.841 32.7941 39.8226 32.7941 39.8071 32.7916L39.0198 32.6647C39.0304 32.688 39.0461 32.7008 39.0565 32.7268C39.1402 32.8977 39.3259 33.0222 39.4358 33.0739L44.2627 33.1491C44.4667 32.9522 44.9739 32.4599 45.4943 31.9392C44.3072 31.4936 43.8758 30.478 43.8024 29.8044C43.1384 29.5246 42.6808 29.1049 42.4271 28.5582C42.1185 27.882 42.2284 27.2058 42.3094 26.8768C41.6661 26.6436 40.989 26.2188 40.2986 25.54H33.0293C33.3404 26.369 33.6046 27.2679 33.6046 28.1619V37.3927Z" fill="#FFDD2D"/>
<path id="Vector_23" d="M40.2488 41.3695C40.1311 41.359 40.0316 41.4498 40.0239 41.5637C40.016 41.6829 40.1049 41.7838 40.2252 41.7865C40.3402 41.7968 40.4422 41.7087 40.4526 41.5921C40.4526 41.4781 40.369 41.3719 40.2488 41.3695Z" fill="black"/>
<path id="Vector_24" d="M54.32 55.3879L53.1249 54.9346L53.4543 53.7117L53.8179 52.3774C53.8179 52.3774 51.6999 53.5149 48.7163 54.3697C47.869 54.6108 47.2284 54.7195 47.2284 54.7195V55.6263C47.2284 55.6263 45.6333 55.9009 44.02 55.9009H44.0017H43.9782H43.9467H43.9285C42.3151 55.9009 40.72 55.6263 40.72 55.6263V54.7195C40.72 54.7195 40.0768 54.6108 39.2323 54.3697C36.2486 53.5149 34.1331 52.3774 34.1331 52.3774L34.4914 53.7117L34.8288 54.9346L33.6311 55.3879L32.3027 55.8803C33.8273 56.6082 35.9375 57.6704 37.8699 58.1937L37.415 59.427C37.415 59.427 39.865 60.5332 43.9467 60.5436V60.5461H43.9598H43.9782H43.9939H44.0044V60.5436C48.0913 60.5332 50.5388 59.427 50.5388 59.427L50.0812 58.1937C52.0137 57.6704 54.129 56.6082 55.6457 55.8803L54.32 55.3879ZM33.7201 55.9631L35.6864 55.3154L35.106 53.4371C35.9715 53.9242 37.9143 54.6549 39.0387 54.9942L38.0894 57.5771C36.3533 57.103 34.9073 56.5512 33.7201 55.9631ZM43.9782 59.8958C41.6955 59.8958 39.0884 59.3752 38.3222 59.1058L39.4884 55.9786C40.4559 56.2584 42.4694 56.5564 43.9311 56.5461H43.9338H43.9782H44.0174H44.0227C45.4844 56.5564 47.4926 56.2584 48.4653 55.9786L49.6288 59.1058C48.8627 59.3777 46.2582 59.8958 43.9782 59.8958ZM49.8616 57.5771L48.9151 54.9942C50.0421 54.6549 51.9797 53.9242 52.8477 53.4371L52.2699 55.3154L54.2336 55.9631C53.0439 56.5512 51.6057 57.103 49.8616 57.5771Z" fill="black"/>
<path id="Vector_25" d="M43.9752 6.57833C46.4071 6.57833 48.3526 7.37633 49.4272 8.22869C49.4272 8.22869 49.7462 6.32444 50.8366 4.64305L48.8781 4.86324L47.8531 2.70512L45.8841 3.71038L43.9752 1.83984L42.0716 3.71038L40.1 2.70512L39.0776 4.86324L37.1191 4.64305C38.2094 6.32444 38.5286 8.22869 38.5286 8.22869C39.6059 7.37633 41.546 6.57833 43.9752 6.57833ZM38.9887 5.61982L39.5327 5.67683L39.7679 5.18705L40.4531 3.73622L41.7238 4.38651L42.2154 4.63533L42.6078 4.25185L43.9779 2.90464L45.3507 4.25185L45.7429 4.63533L46.2344 4.38651L47.4974 3.73622L48.1904 5.18705L48.4205 5.67683L48.9645 5.61982L49.482 5.55761C49.2441 6.08868 49.069 6.59125 48.9435 7.00843C47.5733 6.25186 45.7899 5.82188 43.9726 5.82188C42.1631 5.82188 40.3825 6.25186 39.0071 7.00843C38.8789 6.59125 38.7064 6.08615 38.4684 5.55761L38.9887 5.61982Z" fill="black"/>
<path id="Vector_26" d="M72.5053 31.8454C75.6511 31.8454 76.7022 28.6743 76.7466 28.5395L77.0971 27.423L75.9176 27.4592H75.9125C75.4967 27.4592 72.0269 27.3686 69.5661 24.27L69.3334 23.9824C67.7253 21.9564 66.2009 20.0315 63.4762 19.1532C63.5546 19.0833 63.6671 18.9952 63.8214 18.8967C65.2673 17.9537 66.1094 16.8086 66.3211 15.4795C66.6297 13.4793 65.3433 11.886 65.2857 11.8213L64.4097 10.7487L63.8633 12.0208C63.8267 12.1011 62.9062 14.1376 60.9711 14.1376H60.8274C60.694 14.1296 60.5685 14.1245 60.443 14.1142C60.511 13.2048 60.3436 11.798 59.0572 10.4793C57.5118 8.89113 55.6134 8.65283 54.6197 8.65283C54.0889 8.65283 53.7359 8.71755 53.6992 8.72276L52.376 8.98183L53.1919 10.0466C53.8327 10.868 54.4131 12.3835 53.7255 13.1764C53.5058 13.4276 53.0534 13.6322 52.6193 13.8369C51.7277 14.2436 50.5117 14.8085 50.5117 16.2488C50.5117 17.1816 51.2413 18.1558 52.5645 18.9848C56.4815 21.4254 58.8977 23.972 59.9409 26.7831C61.5544 31.1071 59.4493 33.5734 57.4045 34.8715L56.4867 35.4568L57.2894 36.1874C57.3967 36.2808 58.3798 37.1384 59.8311 37.2627C60.1056 37.2808 60.3698 37.2964 60.6155 37.2964C61.5464 37.2964 62.3388 37.1513 62.982 36.957C62.8042 37.2653 62.5871 37.5787 62.3126 37.8949C61.1438 39.2368 59.7056 39.8482 57.6371 39.8794L56.8685 39.8924L56.8084 40.6567C56.8004 40.8094 56.7429 42.2267 58.0974 43.4313C58.304 43.6178 58.555 43.7708 58.8166 43.8977C57.8987 44.7163 56.9653 46.1413 56.7849 48.5843C56.633 50.6232 56.1417 51.3772 56.1363 51.3851L55.2865 52.6701L56.8215 52.6907C59.3577 52.6907 61.3006 51.9965 62.6472 50.6232C63.4422 49.8099 63.8972 48.8928 64.1665 48.0791C64.6084 48.4523 65.1786 48.7788 65.9211 48.9523C66.2036 49.017 66.512 49.0534 66.8441 49.0534C67.5606 49.0534 68.1594 48.903 68.2273 48.8875L69.2079 48.6284L68.774 47.7217C68.7425 47.6492 67.9242 45.8304 68.8053 43.2345C69.1844 42.1127 69.3779 41.1074 69.4721 40.3249C70.0892 40.6438 70.9155 40.9079 71.9849 40.9106C74.4115 40.9106 75.4811 39.1151 75.5307 39.04L76.0092 38.2161L75.1228 37.8535C72.2308 36.6642 71.5901 33.4698 71.462 31.7392C71.7234 31.7884 72.0215 31.835 72.3588 31.8454H72.5053ZM74.7986 38.6178C74.7986 38.6178 73.9513 40.0763 72.0085 40.0763H71.9849C69.6524 40.0634 68.7111 38.6539 68.7111 38.6539C68.7111 38.6539 68.8472 40.4883 68.0051 42.9624C66.9933 45.9443 68.0129 48.0766 68.0129 48.0766C68.0129 48.0766 67.4691 48.2217 66.8414 48.2217C66.6011 48.2217 66.3501 48.1984 66.1146 48.1361C64.1665 47.6777 63.6802 45.921 63.6802 45.921C63.6802 45.921 63.8606 51.8566 56.8764 51.8566H56.8215C56.8215 51.8566 57.4358 51.0275 57.6189 48.6413C57.951 44.2371 60.9607 43.6335 60.9607 43.6335C60.9607 43.6335 59.3553 43.4339 58.6596 42.8147C57.5719 41.838 57.6477 40.7084 57.6477 40.7084C60.1056 40.6747 61.7138 39.8458 62.9401 38.4388C64.2686 36.9155 64.4882 35.2756 64.4882 35.2756C64.4882 35.2756 63.1677 36.4622 60.6128 36.4622C60.388 36.4622 60.1474 36.4518 59.9018 36.4285C58.6937 36.3327 57.857 35.5709 57.857 35.5709C60.5162 33.8817 62.3831 30.9335 60.7281 26.4928C59.4023 22.9357 56.2173 20.2776 53.0116 18.2748C51.9448 17.6144 51.3511 16.8811 51.3511 16.2488C51.3511 14.7619 53.4848 14.7152 54.3607 13.7151C55.3702 12.5546 54.7374 10.671 53.8614 9.53888C53.8614 9.53888 54.1568 9.47921 54.6224 9.47921C55.5453 9.47921 57.1431 9.70978 58.4557 11.057C60.1998 12.8446 59.4755 14.7903 59.4755 14.7903L59.9435 14.881C60.2233 14.9405 60.5006 14.9509 60.7882 14.9639C60.851 14.9639 60.9136 14.9665 60.9764 14.9665C63.5102 14.9665 64.6423 12.3421 64.6423 12.3421C64.6423 12.3421 67.3358 15.6245 63.3717 18.1945C62.6891 18.635 62.3885 19.0418 62.4669 19.477L62.5296 19.762L62.8119 19.8112C65.6857 20.5832 67.1397 22.5472 68.9152 24.7804C71.611 28.1769 75.4261 28.2857 75.8968 28.2857H75.9465C75.9465 28.2857 75.0758 31.0086 72.5106 31.0086C72.4687 31.0086 72.4321 31.0086 72.3876 31.006C71.2083 30.9645 70.6044 30.5163 70.6044 30.5163C70.6044 30.5163 70.1414 36.7004 74.7986 38.6178Z" fill="black"/>
<path id="Vector_27" d="M66.9795 19.4959C68.1535 20.1152 68.8361 20.9442 69.4349 21.68C70.0232 22.3977 70.5828 23.0893 71.4562 23.3769C71.7673 23.4832 72.0968 23.5324 72.4315 23.5324C73.7443 23.5324 75.062 22.737 75.5616 21.6359L76.0636 20.5323L74.8476 20.4597C74.7901 20.4571 73.2264 20.3172 71.4849 18.553C70.7683 17.8302 69.903 17.4492 68.9694 17.4492C67.8293 17.4492 66.9847 18.0141 66.8907 18.071L65.7715 18.8509L66.9795 19.4959ZM68.9721 18.2835C69.5578 18.2835 70.2403 18.4805 70.8861 19.141C72.9126 21.18 74.7978 21.2939 74.7978 21.2939C74.4554 22.0453 73.4618 22.706 72.434 22.706C72.1961 22.706 71.9582 22.6696 71.7203 22.5893C70.3265 22.1229 69.8271 20.0503 67.3769 18.7602C67.3769 18.7602 68.0621 18.2835 68.9721 18.2835Z" fill="black"/>
<path id="Vector_28" d="M67.5299 30.5042V30.5456C66.8239 24.9029 62.6872 20.8277 58.0851 18.3483C57.6587 18.1228 57.2665 17.9312 56.8848 17.7473C58.2864 17.9622 60.5429 17.9882 62.2844 16.4907C62.2844 16.4907 59.6199 18.4338 54.1602 16.6695C55.6714 17.641 58.6079 19.0116 61.2883 21.2318C67.99 27.0663 63.1944 32.7582 63.1944 32.7582C65.6027 30.2684 65.702 27.5999 64.9934 25.4212C66.2616 27.5118 67.0723 30.0508 66.9466 33.1805C66.7611 37.6651 64.2744 41.5435 61.6569 44.6601C60.3992 46.1731 60.1168 48.0308 60.1168 48.0308C60.1168 48.0308 60.624 46.3907 62.0804 44.7042C64.8863 41.4503 67.284 38.0692 67.5978 33.1986C67.8882 34.0821 69.0832 36.5408 70.9788 37.4657C70.9841 37.4682 68.6019 36.0458 67.5299 30.5042Z" fill="black"/>
<path id="Vector_29" d="M31.8123 51.3825C31.8096 51.3747 31.3233 50.6208 31.1665 48.5819C30.9833 46.1387 30.0524 44.7139 29.1321 43.8953C29.3988 43.7709 29.6445 43.6181 29.8511 43.4289C31.2031 42.2241 31.1455 40.8069 31.1377 40.6542L31.0854 39.8899L30.3114 39.877C28.2482 39.8433 26.8075 39.2318 25.6385 37.8924C25.3667 37.5763 25.147 37.2627 24.9691 36.9545C25.6125 37.1488 26.3996 37.294 27.333 37.294C27.584 37.294 27.8429 37.2783 28.1174 37.2603C29.5687 37.1358 30.552 36.2809 30.6617 36.185L31.4645 35.4544L30.5468 34.869C28.4941 33.5684 26.3969 31.1019 28.0076 26.7805C29.051 23.9696 31.4645 21.4229 35.3868 18.9823C36.7098 18.1534 37.4343 17.1791 37.4343 16.2464C37.4343 14.806 36.2209 14.2387 35.3293 13.8345C34.8952 13.6298 34.4429 13.4251 34.2231 13.1739C33.5328 12.3836 34.116 10.8655 34.7541 10.0442L35.5751 8.9794L34.2467 8.72031C34.2076 8.71511 33.8598 8.65039 33.3263 8.65039C32.3327 8.65039 30.4395 8.88869 28.8915 10.4768C27.6024 11.7982 27.4323 13.2049 27.4978 14.1118C27.3722 14.122 27.2468 14.1272 27.116 14.1351H26.9749C25.0346 14.1351 24.1168 12.0987 24.0802 12.0184L23.5337 10.7463L22.6498 11.8188C22.6002 11.8836 21.3084 13.4795 21.6221 15.4771C21.8314 16.8061 22.6734 17.9512 24.1194 18.8942C24.2763 18.9926 24.3861 19.0808 24.4646 19.1508C21.7424 20.0291 20.2207 21.9566 18.6124 23.9825L18.3798 24.2701C15.9218 27.3687 12.4441 27.4594 12.0283 27.4594L10.8438 27.4231L11.2046 28.5396C11.2464 28.6744 12.295 31.8455 15.4433 31.8455L15.595 31.8402C15.9271 31.83 16.2251 31.7859 16.4919 31.7342C16.3612 33.4621 15.7205 36.6566 12.8258 37.8483L11.942 38.2111L12.4206 39.0348C12.4676 39.11 13.5398 40.9054 15.9715 40.9054C17.033 40.9029 17.8593 40.6386 18.4791 40.3201C18.5732 41.1024 18.7667 42.1075 19.1459 43.2293C20.0271 45.8253 19.2062 47.644 19.1747 47.7166L18.7408 48.6234L19.7238 48.8824C19.7892 48.898 20.3932 49.0482 21.1071 49.0482C21.4418 49.0482 21.7504 49.012 22.0276 48.9472C22.7727 48.7736 23.348 48.4473 23.7848 48.0741C24.0513 48.8876 24.5091 49.8047 25.3013 50.6183C26.6506 51.9913 28.5908 52.6857 31.1272 52.6857L32.6648 52.6649L31.8123 51.3825ZM31.0696 51.8567C24.0854 51.8567 24.2633 45.9212 24.2633 45.9212C24.2633 45.9212 23.7768 47.6777 21.8287 48.1364C21.5961 48.1984 21.3476 48.2217 21.1045 48.2217C20.4769 48.2217 19.9356 48.0767 19.9356 48.0767C19.9356 48.0767 20.9503 45.9445 19.9382 42.9625C19.1015 40.4884 19.2374 38.654 19.2374 38.654C19.2374 38.654 18.2987 40.0635 15.9637 40.0763H15.9402C13.9972 40.0763 13.15 38.6178 13.15 38.6178C17.8045 36.7032 17.3469 30.5216 17.3469 30.5216C17.3469 30.5216 16.743 30.9673 15.5609 31.0112C15.5192 31.0139 15.4799 31.0139 15.4381 31.0139C12.8703 31.0139 12.0022 28.291 12.0022 28.291H12.0544C12.5277 28.291 16.3376 28.1822 19.0335 24.7856C20.8089 22.5524 22.2655 20.5911 25.1341 19.8166L25.4217 19.7674L25.4843 19.4824C25.5629 19.0472 25.2647 18.6404 24.5823 18.2C20.618 15.6273 23.3114 12.3474 23.3114 12.3474C23.3114 12.3474 24.4384 14.9692 26.9776 14.9692C27.0401 14.9692 27.0977 14.9667 27.1631 14.9667C27.4481 14.951 27.7306 14.9408 28.0076 14.8811L28.4757 14.7904C28.4757 14.7904 27.7514 12.8447 29.4982 11.0572C30.8109 9.70734 32.4085 9.47943 33.3288 9.47943C33.797 9.47943 34.0873 9.53896 34.0873 9.53896C33.2139 10.6737 32.5812 12.5546 33.5904 13.7154C34.4637 14.7128 36.5949 14.762 36.5949 16.2491C36.5949 16.8786 36.0013 17.6144 34.9344 18.275C31.726 20.2778 28.5411 22.9359 27.2179 26.4929C25.5654 30.9336 27.4299 33.8793 30.0944 35.5711C30.0944 35.5711 29.2576 36.3328 28.0469 36.4286C27.8012 36.4519 27.5632 36.4622 27.333 36.4622C24.7809 36.4622 23.4605 35.2757 23.4605 35.2757C23.4605 35.2757 23.6801 36.9156 25.0006 38.4391C26.2349 39.8457 27.8429 40.6749 30.301 40.7085C30.301 40.7085 30.3794 41.838 29.2916 42.8148C28.5934 43.4314 26.988 43.6334 26.988 43.6334C26.988 43.6334 30.0003 44.2371 30.3296 48.6414C30.5101 51.0276 31.1193 51.8567 31.1193 51.8567H31.0696Z" fill="black"/>
<path id="Vector_30" d="M15.5135 23.5347C15.8507 23.5347 16.1802 23.4855 16.4915 23.3792C17.3699 23.0916 17.927 22.3998 18.5154 21.6823C19.1167 20.9466 19.794 20.1174 20.9681 19.4983L22.176 18.8556L21.0544 18.076C20.9602 18.0164 20.1182 17.4541 18.9808 17.4541C18.0446 17.4541 17.1766 17.8325 16.4626 18.5578C14.7212 20.3196 13.1602 20.4621 13.1025 20.4647L11.8867 20.5345L12.3861 21.6408C12.8881 22.7367 14.2034 23.5347 15.5135 23.5347ZM17.0615 19.1433C17.71 18.4828 18.3924 18.2858 18.9808 18.2858C19.8855 18.2858 20.5707 18.7624 20.5707 18.7624C18.123 20.0553 17.621 22.1252 16.2221 22.5917C15.992 22.6719 15.7514 22.7083 15.5135 22.7083C14.4859 22.7083 13.4922 22.0502 13.1522 21.2962C13.1522 21.2937 15.0349 21.1797 17.0615 19.1433Z" fill="black"/>
<path id="Vector_31" d="M21.0035 33.1829C20.8726 30.0532 21.6834 27.5143 22.954 25.4236C22.2455 27.6024 22.3423 30.2708 24.7532 32.7606C24.7532 32.7606 19.9575 27.0688 26.662 21.2342C29.3449 19.0141 32.2787 17.6434 33.7874 16.672C28.3304 18.4363 25.6658 16.4932 25.6658 16.4932C27.4072 17.9906 29.6639 17.9646 31.0655 17.747C30.6863 17.931 30.2889 18.1228 29.8678 18.3481C25.2604 20.8275 21.1263 24.9029 20.4178 30.5455V30.5014C19.3482 36.0431 16.9688 37.4654 16.9688 37.4654C18.862 36.5405 20.0543 34.0845 20.3446 33.1984C20.6609 38.0691 23.0587 41.45 25.8645 44.7041C27.3209 46.3908 27.8335 48.0305 27.8335 48.0305C27.8335 48.0305 27.5484 46.1731 26.2854 44.66C23.6732 41.5485 21.1865 37.6676 21.0035 33.1829Z" fill="black"/>
<path id="Vector_32" d="M42.3984 21.7651V22.8844C42.7882 22.4153 43.5413 22.5113 43.5413 22.5113V24.1253C43.5413 24.1253 43.5151 24.918 43.2301 25.2627H44.0458H44.8591C44.5793 24.9206 44.5505 24.1253 44.5505 24.1253V22.5113C44.5505 22.5113 45.3036 22.4153 45.6907 22.8844V21.7651H44.0458H42.3984Z" fill="black"/>
<path id="Vector_33" d="M41.6971 15.1278C42.2174 15.5371 42.5181 15.6045 42.5285 15.6122L42.7325 15.7054V14.651L40.8184 13.853C40.8184 13.8557 40.8367 14.4645 41.6971 15.1278Z" fill="black"/>
<path id="Vector_34" d="M46.2497 15.1278C47.1153 14.4645 47.1308 13.853 47.1308 13.853L45.2168 14.651V15.7054L45.4182 15.6122C45.4313 15.6045 45.7294 15.5371 46.2497 15.1278Z" fill="black"/>
<path id="Vector_35" d="M49.6976 10.8347C49.6976 9.23625 46.9807 7.79834 43.9815 7.79834H43.9789H43.9711H43.9631C40.9639 7.79834 38.2472 9.23625 38.2472 10.8347L38.3073 11.2285L39.5048 18.0396L38.3021 18.7313L35.1903 20.532H35.2007C35.2007 20.532 34.5001 20.8869 34.1758 21.1071C32.9912 21.9233 32.7402 23.1123 33.428 23.6047C33.598 22.6356 34.3719 21.6201 35.8206 21.6201C36.8639 21.6201 37.6588 22.1538 38.3021 22.9544C38.4668 23.1564 38.6236 23.3714 38.7701 23.6047C38.9506 23.8974 39.1309 24.1538 39.3114 24.4026H31.2969C31.8853 25.5761 32.4447 26.8197 32.4447 28.1696V45.7453C32.4447 49.9993 35.7474 52.0306 39.3193 52.0306C42.0805 52.0306 42.4518 51.9063 43.9762 53.4089C45.4928 51.9036 45.8642 52.0306 48.628 52.0306C52.2026 52.0306 55.4998 49.9993 55.4998 45.7453V28.1696C55.4998 26.8197 56.0596 25.5761 56.6504 24.4026H48.6334C48.8112 24.1565 48.9916 23.8974 49.1721 23.6047C49.3209 23.3714 49.4752 23.1564 49.6375 22.9544C50.286 22.1512 51.0781 21.6201 52.1215 21.6201C53.5701 21.6201 54.3414 22.633 54.5141 23.6047C55.2018 23.1123 54.9535 21.9233 53.761 21.1071C53.442 20.8869 52.7413 20.532 52.7413 20.532H52.7517L49.6401 18.7313L48.4425 18.0396L49.6401 11.2285L49.6976 10.8347ZM39.4264 11.6275L43.6364 13.042V19.5941L40.5378 17.975L39.4264 11.6275ZM40.2972 25.5451C40.9874 26.2264 41.6648 26.6488 42.3081 26.882C42.2243 27.2109 42.1145 27.8898 42.4256 28.5659C42.6793 29.1099 43.1395 29.5297 43.8011 29.8095C43.8743 30.4832 44.3031 31.4961 45.4928 31.9444C44.9725 32.4651 44.4651 32.9546 44.2587 33.1542L39.4342 33.0791C39.3245 33.0246 39.1388 32.9029 39.0551 32.7293C39.0446 32.706 39.0289 32.6931 39.0211 32.6671L39.8082 32.794C39.8266 32.7967 39.8421 32.7967 39.8579 32.7967C40.0095 32.7967 40.1429 32.6931 40.1691 32.5377C40.1953 32.364 40.0776 32.2059 39.9076 32.1801L38.9402 32.0298L40.0148 28.3536L38.9976 26.2317L37.3659 27.9415L37.2666 31.7656L36.1709 31.5946C36.0008 31.5609 35.8388 31.6853 35.8102 31.8537C35.784 32.022 35.899 32.1801 36.0716 32.2112L36.5318 32.2811C36.3671 32.3744 36.2598 32.4469 36.2467 32.4573L36.1527 32.5221L36.1265 32.6361C35.8598 33.7086 36.4638 34.7269 37.1149 35.1827L37.0913 35.3176C37.0653 35.4832 37.1018 35.6438 37.2011 35.7787C37.2953 35.916 37.4417 35.9989 37.6038 36.0273C37.6379 36.0326 37.6745 36.0351 37.7058 36.0351C37.9882 36.0351 38.2341 35.8408 38.3046 35.5585C38.5478 35.5868 38.7701 35.5921 38.9217 35.5921H39.0499L45.3805 36.7243L45.4876 36.6543C45.9924 36.3045 47.9142 34.9159 48.5444 34.4574C48.717 34.605 48.9105 34.7397 49.1458 34.8512C48.9418 35.53 48.9287 36.574 49.7367 37.3979H33.6031V28.1721C33.6031 27.2783 33.339 26.3793 33.0278 25.5504H40.2972V25.5451ZM48.1208 33.9857C47.4801 34.4521 45.8328 35.6438 45.2366 36.0585L39.484 35.0352C39.4971 34.9833 39.51 34.9341 39.5231 34.8822C39.5991 34.587 39.6749 34.1827 39.6801 33.7086L44.5149 33.7864L44.6065 33.6931C44.6797 33.6206 46.2119 32.1542 46.9938 31.3095C47.1794 31.5401 47.4122 31.7605 47.7156 31.9546C47.6109 32.5144 47.6554 33.3122 48.1208 33.9857ZM38.4903 32.9988C38.6263 33.2811 38.8721 33.4703 39.042 33.5765C39.0369 33.8407 39.0107 34.2527 38.9402 34.6154C38.9244 34.6957 38.9034 34.7709 38.8799 34.846C38.8668 34.8926 38.8538 34.9315 38.8433 34.9625C38.5897 34.9625 38.0902 34.9315 37.6823 34.7839C37.23 34.618 36.5553 33.7967 36.7122 32.8925C36.9083 32.7734 37.3607 32.5221 37.7842 32.5221C38.1112 32.5195 38.3334 32.6723 38.4903 32.9988ZM37.8915 31.8614L37.9882 28.1903L38.8198 27.3172L39.3428 28.4002L38.3125 31.9235L37.8915 31.8614ZM48.0685 50.8933C47.7547 50.8933 47.4646 50.8985 47.2029 50.9088L47.888 48.7973C47.9953 48.5045 47.4539 48.1289 47.2318 47.7998C47.569 48.0097 48.4425 48.4682 48.8635 48.6522C48.8189 48.7196 48.0685 50.8933 48.0685 50.8933ZM50.2179 48.4942L49.7708 50.8051C49.4856 50.8439 49.1825 50.8648 48.8713 50.8776L49.342 48.6548C49.4832 47.9941 47.692 47.7894 46.8081 46.4915C46.3767 46.9734 45.5635 47.1158 44.7476 47.1158C44.0024 47.1158 43.2573 46.9967 42.8047 46.9086C42.6897 46.8905 42.5799 46.8776 42.4727 46.8776C42.2112 46.8776 41.9733 46.9579 41.8086 47.2325L41.6778 47.45L39.2382 46.88L38.6315 47.875C38.5453 48.0356 38.54 48.1729 38.6786 48.3232L38.8433 48.5018C38.7309 48.8542 38.2237 49.3854 38.2237 49.3854L37.8601 48.9372C37.5725 48.6184 37.6195 48.0383 37.9203 47.4993L38.8877 45.8801L40.9535 46.1754L40.6318 45.45C40.2004 44.4914 40.8568 43.2711 40.9273 42.5691C40.9038 42.7814 40.7077 42.8282 40.4775 42.8282C40.2685 42.8282 40.0357 42.7894 39.8814 42.7894C39.8213 42.7894 39.7689 42.7945 39.7402 42.8151L39.1806 43.152L38.7386 42.7661C38.6864 42.6909 38.6681 42.5172 38.7988 42.3877L39.8213 41.2529L38.6132 39.8565L40.305 40.6986L40.8201 40.0793C40.9613 40.2167 40.9012 40.5768 40.9012 40.5768C41.4293 40.5897 42.9094 41.4006 42.9879 43.2919C42.9932 43.3489 42.9932 43.4137 42.9932 43.4758C42.9932 43.4758 43.0063 43.4991 43.0322 43.538C43.1369 43.6806 43.4246 44.0458 43.7906 44.0795L46.1283 44.3076H46.1387C46.395 44.3076 46.9049 44.0095 47.5586 44.0095C47.9142 44.0095 48.3117 44.1002 48.7353 44.3645C48.7353 44.3645 48.9471 44.1987 49.2923 44.1804C49.3185 44.178 49.3472 44.178 49.3734 44.178C50.4219 44.178 50.856 45.1158 51.4182 45.8955C51.8417 46.4888 52.4065 47.3698 52.4065 47.3698C52.1975 47.6159 52.0039 47.7506 51.6796 47.7506C51.5907 47.7506 51.4887 47.7428 51.3789 47.7222C50.2545 47.5174 50.0924 45.2271 49.4517 45.0459C49.4178 45.0355 49.3812 45.033 49.3498 45.033C49.1431 45.033 49.0517 45.2142 49.0517 45.2142C49.3445 45.9941 49.1746 46.3101 49.4883 46.9112C49.7238 47.3567 50.1421 47.7247 50.3146 47.8983C50.3146 47.9034 50.2676 48.2403 50.2179 48.4942ZM37.664 46.3076L37.7711 46.5744C37.7006 46.8076 36.89 47.1391 36.89 47.1391L36.7148 46.761C36.5291 46.3569 36.5684 45.6753 37.1333 45.2583L38.4458 44.4655L39.837 44.7583C39.8108 45.1961 40.0749 45.5226 40.0749 45.5226L38.6158 45.2453L37.7425 45.8438C37.596 45.9448 37.5856 46.134 37.664 46.3076ZM50.4376 50.6782L50.8376 48.6107C50.8586 48.489 50.8846 48.3465 50.903 48.2274C51.0156 48.274 51.1357 48.3128 51.2666 48.3361C51.4155 48.3645 51.5541 48.3776 51.6796 48.3776C52.2915 48.3776 52.6471 48.0589 52.885 47.7869L53.1936 47.4319L52.9426 47.0433C52.9191 47.0045 52.3647 46.134 51.9359 45.538C51.8523 45.4215 51.7711 45.3049 51.69 45.178C51.2038 44.4578 50.5944 43.5537 49.3734 43.5537L49.2635 43.5561C49.0622 43.569 48.8896 43.608 48.7509 43.6597C48.3666 43.481 47.9718 43.3904 47.5613 43.3904C47.0566 43.3904 46.6303 43.5277 46.348 43.6236C46.2669 43.6469 46.1937 43.6727 46.1361 43.683L43.8534 43.4603C43.8246 43.455 43.7304 43.4007 43.618 43.266V43.2556L44.1122 43.0587C43.9738 41.4291 42.3943 40.4265 41.513 40.0871C41.4739 39.9239 41.3954 39.7607 41.2568 39.6285L40.7652 39.1674L40.3338 39.6804L40.1221 39.942L36.9266 38.6415L39.0054 41.227L38.1844 42.4576C37.8836 42.7737 38.2157 43.0899 38.2157 43.0899L39.0628 43.6675L39.9416 43.3437C39.9729 43.3437 39.9991 43.3514 40.0279 43.3541C39.986 43.4862 39.9312 44.0044 39.8945 44.1494L38.37 43.8515L36.767 44.748C35.9434 45.3464 35.831 46.3386 36.1369 47.0174L36.3147 47.4034L36.5684 47.9475L37.1279 47.7169C37.1358 47.7142 37.1437 47.7118 37.1488 47.7065C36.9475 48.3439 37.0287 48.9502 37.3894 49.349L37.7294 49.774L38.1817 50.3414L38.6786 49.8128C38.8249 49.6678 39.2983 49.1418 39.4446 48.691L39.552 48.3465L39.3087 48.0822L39.2695 48.0356L39.5414 47.59L41.5313 48.0537L41.9784 48.1547L42.2165 47.7661L42.3472 47.5536C42.3707 47.5097 42.3786 47.5019 42.47 47.5019C42.5407 47.5019 42.6114 47.5097 42.6872 47.5253C43.4375 47.6652 44.1305 47.7351 44.7451 47.7351C45.3412 47.7351 45.6968 47.7118 46.1231 47.5719C46.1231 47.5719 47.1925 48.7739 47.2291 48.8207L46.5755 50.8206L46.5466 50.9424C45.3072 51.0408 44.7032 51.3103 43.9738 52.0332C42.9145 50.9918 42.1642 50.8829 39.3166 50.8829C35.9094 50.8829 33.6004 48.9035 33.6004 45.7428V38.0145H54.3414L54.3468 45.7428C54.3494 48.3075 52.8302 50.0953 50.4376 50.6782ZM54.9221 25.5451C54.6056 26.3742 54.3414 27.2731 54.3414 28.1669L54.3441 33.934C53.1283 33.7319 52.9844 32.4339 52.9792 32.3769L52.9557 32.1127L52.6942 32.0894C52.166 32.0401 51.8156 31.8175 51.52 31.5323C50.924 30.9416 50.9213 29.9831 50.924 29.9754C50.9161 30.0245 50.2676 30.9235 51.0207 31.9055C51.3371 32.3199 51.7946 32.5738 52.3882 32.675C52.5268 33.3951 53.0681 34.4107 54.3441 34.5661V37.3902H50.7566C49.1014 36.4781 49.8022 34.8719 49.8361 34.8046L49.9773 34.4987L49.661 34.3797C47.8698 33.7215 48.3614 31.9495 48.3875 31.8745L48.4607 31.6153L48.2177 31.5013C46.7375 30.8226 46.9389 28.9909 46.9571 28.9156C46.5022 29.2811 46.3376 30.0272 46.6513 30.7578C46.4813 30.9495 46.2538 31.1825 46.0055 31.4365C44.4731 31.0505 44.4261 29.654 44.4261 29.5894L44.4234 29.3743L44.2221 29.2966C43.6233 29.0762 43.2127 28.7473 43.0114 28.3043C42.7839 27.8146 42.865 27.3016 42.9276 27.0555C43.1029 27.0943 43.2781 27.1229 43.4455 27.1358C43.618 27.1539 43.7958 27.1643 43.9738 27.1643H43.9842H43.9973C44.1751 27.1643 44.3502 27.1539 44.5228 27.1358C45.4772 27.0426 46.5466 26.6358 47.6605 25.5424H54.9221V25.5451ZM49.3315 19.7158L50.7487 20.532H50.7697L51.1253 20.7367C50.325 20.9569 49.7132 21.3533 49.2007 21.874C49.1825 21.8896 49.1641 21.9102 49.1458 21.9284C49.0282 22.0528 48.9105 22.1875 48.8007 22.3247C48.7798 22.3507 48.7588 22.3791 48.7353 22.4077C48.6254 22.5476 48.5235 22.6901 48.4241 22.8404C48.4084 22.8663 48.3901 22.8921 48.3718 22.9155C48.2543 23.089 48.1417 23.2756 48.0292 23.4673C47.02 25.1902 45.4091 26.2187 43.9762 26.2213C42.546 26.2187 40.9353 25.1902 39.9259 23.4673C39.8159 23.2809 39.7062 23.0994 39.5885 22.9231C39.5649 22.8896 39.5441 22.8559 39.5231 22.8275C39.4238 22.6849 39.3245 22.545 39.2224 22.4128C39.1963 22.3766 39.1728 22.3482 39.1466 22.317C39.0369 22.1848 38.9244 22.0528 38.8118 21.931C38.7883 21.9129 38.7728 21.8896 38.7493 21.8687C38.2341 21.348 37.6248 20.9542 36.822 20.7367L37.1829 20.532H37.1985L38.6158 19.7158L40.0723 18.8895L43.9631 20.9879L43.9711 20.9802L43.9815 20.9879L47.8723 18.8895L49.3315 19.7158ZM47.4122 17.9774L44.3109 19.5966V13.042L48.5182 11.6275L47.4122 17.9774ZM43.9738 12.3219L39.361 10.516C39.7534 9.59629 41.5627 8.81387 43.9738 8.81134C46.3871 8.81387 48.1966 9.59629 48.5862 10.516L43.9738 12.3219Z" fill="black"/>
<path id="Vector_36" d="M8.29719 81.5638V73.4535H13.0985V70.5024H0V73.4535H4.80114V81.5638H8.29719ZM17.9936 70.5024H14.4976V81.5638H17.9936V70.5024ZM20.552 70.5024V81.5638H23.7683V75.4521L29.7581 81.5638H32.7415V70.5024H29.5251V76.5675L23.6751 70.5024H20.552ZM39.6127 77.3808L43.6447 81.5638H48.1429L42.526 75.8007L47.9333 70.5024H43.6913L39.6127 74.6619H38.6803V70.5024H35.3008V81.5638H38.6803V77.3808H39.6127ZM55.0967 70.2002C50.5519 70.2002 47.825 72.7563 47.825 76.0563C47.825 79.3561 50.5519 81.9122 55.0967 81.9122C59.6183 81.9122 62.3452 79.3561 62.3452 76.0563C62.3452 72.7563 59.6183 70.2002 55.0967 70.2002ZM55.0967 79.2166C52.8361 79.2166 51.391 77.8688 51.391 76.0563C51.391 74.2437 52.8361 72.9191 55.0967 72.9191C57.3342 72.9191 58.8025 74.2437 58.8025 76.0563C58.8025 77.8688 57.3342 79.2166 55.0967 79.2166ZM75.1616 70.5024H63.9511V81.5638H67.3305V77.7062H74.6722V75.2661H67.3305V73.314H75.1616V70.5024ZM87.8849 70.5024H76.6742V81.5638H80.0538V77.7062H87.3954V75.2661H80.0538V73.314H87.8849V70.5024Z" fill="black"/>
</g>
</svg>
