<svg width="80" height="80" viewBox="0 0 80 80" fill="none" xmlns="http://www.w3.org/2000/svg">
<g id="6" clip-path="url(#clip0_937_221)">
<circle id="Ellipse 7" cx="40" cy="40" r="38.5" stroke="white" stroke-width="3"/>
<path id="Ellipse 8" d="M58.5 40C58.5 50.8633 56.2952 60.6241 52.8005 67.6134C49.2609 74.6926 44.6486 78.5 40 78.5C35.3514 78.5 30.7391 74.6926 27.1995 67.6134C23.7048 60.6241 21.5 50.8633 21.5 40C21.5 29.1367 23.7048 19.3759 27.1995 12.3865C30.7391 5.30743 35.3514 1.5 40 1.5C44.6486 1.5 49.2609 5.30743 52.8005 12.3865C56.2952 19.3759 58.5 29.1367 58.5 40Z" stroke="white" stroke-width="3"/>
<path id="Ellipse 9" d="M40 58.5C29.1367 58.5 19.3759 56.2952 12.3865 52.8005C5.30743 49.2609 1.5 44.6486 1.5 40C1.5 35.3514 5.30743 30.7391 12.3866 27.1995C19.3759 23.7048 29.1367 21.5 40 21.5C50.8633 21.5 60.6241 23.7048 67.6135 27.1995C74.6926 30.7391 78.5 35.3514 78.5 40C78.5 44.6486 74.6926 49.2609 67.6134 52.8005C60.6241 56.2952 50.8633 58.5 40 58.5Z" stroke="white" stroke-width="3"/>
</g>
<defs>
<clipPath id="clip0_937_221">
<rect width="80" height="80" fill="white"/>
</clipPath>
</defs>
</svg>
