<svg width="40" height="20" viewBox="0 0 40 20" fill="none" xmlns="http://www.w3.org/2000/svg">
<path id="Vector" fill-rule="evenodd" clip-rule="evenodd" d="M23.4097 17.7287C23.5139 16.3847 24.2365 14.2928 26.0425 15.4337C27.1337 16.1249 27.9996 17.1261 28.9801 18.005C29.9371 18.861 31.0791 19.6089 33.2067 19.563C34.4685 19.5357 38.0922 19.6362 39.0363 19.3479C41.8892 18.4799 36.8344 14.5133 35.6 13.6257C35.0805 13.2523 34.4984 12.7205 34.0531 12.3253C33.5023 11.8373 33.238 11.3427 33.6755 10.5773L35.5883 8.32159C36.1547 7.80298 38.2498 5.29069 38.7563 4.60285C39.4855 3.61147 40.9816 1.66257 39.0532 1.35031C37.9685 1.17452 34.4476 1.3383 33.1078 1.34594C30.4684 1.36013 31.0049 1.11556 29.7028 3.63658C28.8356 5.31362 26.1584 9.26602 24.7391 9.71694C22.1076 10.5533 24.1662 2.55022 23.0568 1.16579C22.3836 0.326176 19.2638 0.43099 17.8041 0.447368C16.1088 0.464837 13.765 0.540173 13.2702 1.71279C13.4212 1.82088 13.2559 1.74773 13.5488 1.84818C13.7598 1.92024 14.0892 1.93662 14.4473 2.09711C14.765 2.23796 15.0541 2.4858 15.2194 2.70853C16.0189 3.7807 15.9226 8.29758 15.2611 9.39267C14.0228 11.4388 10.4056 5.6903 9.78575 4.66617C8.90032 3.20422 8.55266 1.78267 7.55004 1.41909C6.82346 1.15705 2.7049 1.30336 1.59681 1.31864C0.582465 1.33174 -0.292549 1.46604 0.0928745 2.47379C0.286888 2.98149 0.747834 3.69663 1.02648 4.2087C2.74396 7.36953 5.4289 11.2499 7.79483 13.879C10.4655 16.8455 14.4134 19.4735 19.4044 19.5073C22.9891 19.5313 23.2599 19.6645 23.4097 17.7287Z" fill="white"/>
</svg>
