<svg width="42" height="30" viewBox="0 0 42 30" fill="none" xmlns="http://www.w3.org/2000/svg">
<path id="Vector" fill-rule="evenodd" clip-rule="evenodd" d="M4.3193 28.6432C3.57043 28.4188 2.88715 28.0197 2.3271 27.4794C1.76705 26.9391 1.34668 26.2736 1.10144 25.539C-0.299878 21.7422 -0.715085 5.88807 1.98376 2.75828C2.88198 1.74013 4.15016 1.11329 5.51302 1.0138C12.7532 0.244181 35.1225 0.346798 37.6915 1.27034C38.4141 1.50209 39.0743 1.8925 39.6226 2.4123C40.1709 2.93211 40.5931 3.56784 40.8575 4.27186C42.3886 8.19693 42.4405 22.4606 40.6499 26.2317C40.1749 27.2134 39.3797 28.0085 38.3922 28.4893C35.6934 29.8233 7.90046 29.7976 4.3193 28.6432ZM15.8153 21.2035L28.7905 14.5335L15.8153 7.81211V21.2035Z" fill="white"/>
</svg>
